<svg width="489" height="272" viewBox="0 0 489 272" fill="none" xmlns="http://www.w3.org/2000/svg">
<path d="M203.091 241V147.909H222.773V224.773H262.682V241H203.091ZM294.136 241H273.045L305.182 147.909H330.545L362.636 241H341.545L318.227 169.182H317.5L294.136 241ZM292.818 204.409H342.636V219.773H292.818V204.409ZM373.841 241V147.909H411.114C417.962 147.909 423.674 148.924 428.25 150.955C432.826 152.985 436.265 155.803 438.568 159.409C440.871 162.985 442.023 167.106 442.023 171.773C442.023 175.409 441.295 178.606 439.841 181.364C438.386 184.091 436.386 186.333 433.841 188.091C431.326 189.818 428.447 191.045 425.205 191.773V192.682C428.75 192.833 432.068 193.833 435.159 195.682C438.28 197.53 440.811 200.121 442.75 203.455C444.689 206.758 445.659 210.697 445.659 215.273C445.659 220.212 444.432 224.621 441.977 228.5C439.553 232.348 435.962 235.394 431.205 237.636C426.447 239.879 420.583 241 413.614 241H373.841ZM393.523 224.909H409.568C415.053 224.909 419.053 223.864 421.568 221.773C424.083 219.652 425.341 216.833 425.341 213.318C425.341 210.742 424.72 208.47 423.477 206.5C422.235 204.53 420.462 202.985 418.159 201.864C415.886 200.742 413.174 200.182 410.023 200.182H393.523V224.909ZM393.523 186.864H408.114C410.811 186.864 413.205 186.394 415.295 185.455C417.417 184.485 419.083 183.121 420.295 181.364C421.538 179.606 422.159 177.5 422.159 175.045C422.159 171.682 420.962 168.97 418.568 166.909C416.205 164.848 412.841 163.818 408.477 163.818H393.523V186.864ZM469.42 242.182C466.42 242.182 463.845 241.121 461.693 239C459.572 236.848 458.511 234.273 458.511 231.273C458.511 228.303 459.572 225.758 461.693 223.636C463.845 221.515 466.42 220.455 469.42 220.455C472.33 220.455 474.875 221.515 477.057 223.636C479.239 225.758 480.33 228.303 480.33 231.273C480.33 233.273 479.814 235.106 478.784 236.773C477.784 238.409 476.466 239.727 474.83 240.727C473.193 241.697 471.39 242.182 469.42 242.182Z" fill="black"/>
<path d="M130.091 124H97.0909V30.9091H130.364C139.727 30.9091 147.788 32.7727 154.545 36.5C161.303 40.197 166.5 45.5151 170.136 52.4545C173.803 59.3939 175.636 67.697 175.636 77.3636C175.636 87.0606 173.803 95.3939 170.136 102.364C166.5 109.333 161.273 114.682 154.455 118.409C147.667 122.136 139.545 124 130.091 124ZM116.773 107.136H129.273C135.091 107.136 139.985 106.106 143.955 104.045C147.955 101.955 150.955 98.7273 152.955 94.3636C154.985 89.9697 156 84.303 156 77.3636C156 70.4848 154.985 64.8636 152.955 60.5C150.955 56.1364 147.97 52.9242 144 50.8636C140.03 48.803 135.136 47.7727 129.318 47.7727H116.773V107.136ZM190.216 124V30.9091H252.943V47.1364H209.898V69.3182H249.716V85.5455H209.898V107.773H253.125V124H190.216ZM284.636 124H263.545L295.682 30.9091H321.045L353.136 124H332.045L308.727 52.1818H308L284.636 124ZM283.318 87.4091H333.136V102.773H283.318V87.4091ZM412.716 57.6818C412.352 54.0151 410.792 51.1667 408.034 49.1364C405.277 47.1061 401.534 46.0909 396.807 46.0909C393.595 46.0909 390.883 46.5455 388.67 47.4545C386.458 48.3333 384.761 49.5606 383.58 51.1364C382.428 52.7121 381.852 54.5 381.852 56.5C381.792 58.1667 382.14 59.6212 382.898 60.8636C383.686 62.1061 384.761 63.1818 386.125 64.0909C387.489 64.9697 389.064 65.7424 390.852 66.4091C392.64 67.0455 394.549 67.5909 396.58 68.0455L404.943 70.0455C409.004 70.9545 412.731 72.1667 416.125 73.6818C419.519 75.197 422.458 77.0606 424.943 79.2727C427.428 81.4848 429.352 84.0909 430.716 87.0909C432.11 90.0909 432.822 93.5303 432.852 97.4091C432.822 103.106 431.367 108.045 428.489 112.227C425.64 116.379 421.519 119.606 416.125 121.909C410.761 124.182 404.292 125.318 396.716 125.318C389.201 125.318 382.655 124.167 377.08 121.864C371.534 119.561 367.201 116.152 364.08 111.636C360.989 107.091 359.367 101.47 359.216 94.7727H378.261C378.473 97.8939 379.367 100.5 380.943 102.591C382.549 104.652 384.686 106.212 387.352 107.273C390.049 108.303 393.095 108.818 396.489 108.818C399.822 108.818 402.716 108.333 405.17 107.364C407.655 106.394 409.58 105.045 410.943 103.318C412.307 101.591 412.989 99.6061 412.989 97.3636C412.989 95.2727 412.367 93.5152 411.125 92.0909C409.913 90.6667 408.125 89.4545 405.761 88.4545C403.428 87.4545 400.564 86.5455 397.17 85.7273L387.034 83.1818C379.186 81.2727 372.989 78.2879 368.443 74.2273C363.898 70.1667 361.64 64.697 361.67 57.8182C361.64 52.1818 363.14 47.2576 366.17 43.0455C369.231 38.8333 373.428 35.5455 378.761 33.1818C384.095 30.8182 390.155 29.6364 396.943 29.6364C403.852 29.6364 409.883 30.8182 415.034 33.1818C420.216 35.5455 424.246 38.8333 427.125 43.0455C430.004 47.2576 431.489 52.1364 431.58 57.6818H412.716Z" fill="black"/>
<path d="M77.619 84.3194C77.619 84.3194 22.9874 82.5597 20.0002 84.3194C17.0131 86.0791 23.3931 76.2405 25.5005 78C27.608 79.7595 30.1125 81.6802 30.1125 81.6802L35.391 79.9207C35.391 79.9207 30.4604 75.5218 28.353 74.6422C26.2455 73.7627 30.1125 69.3639 31.872 71.1232L31.8768 71.128C33.641 72.8921 38.9124 78.1628 41.5492 79.9207C44.1885 81.6802 45.6 78.1614 44.1885 76.4017C42.7769 74.642 35.391 66.7245 35.391 66.7245C35.391 66.7245 37.6823 61.4462 39.4418 63.2055C41.2013 64.9648 47.7075 71.1232 47.7075 71.1232C47.7075 71.1232 52.638 69.3639 50.3467 66.7245C48.0554 64.085 44.1885 61.4462 44.1885 61.4462C44.1885 61.4462 44.1885 57.0472 47.7075 59.6865C51.2265 62.3257 57.3847 66.7245 57.3847 66.7245C57.3847 66.7245 63.1951 65.8449 60.9037 63.2055C58.6124 60.566 51.7583 57.0472 50.3467 54.408C48.9351 51.7687 51.7583 49.1297 53.8657 50.889C55.9731 52.6483 53.8657 51.7687 57.3847 54.408C60.9037 57.0472 63.1951 53.5284 60.9037 50.889C58.6124 48.2495 60.9037 50.8888 57.3847 47.37C53.8657 43.8512 58.7963 39.4522 60.9037 42.0915C63.0112 44.7307 67.9417 49.1293 70.581 50.889C73.2202 52.6487 76.3913 50.8892 73.2202 47.37C70.0491 43.8508 64.4227 39.4522 64.4227 39.4522C64.4227 39.4522 64.4227 34.1739 67.9411 35.9332C71.4595 37.6925 85.0048 55.2875 88.1759 57.0472C91.347 58.8069 93.9862 57.0472 92.5747 54.408C91.1631 51.7687 67.9417 29.7748 64.4227 27.1357C60.9037 24.4967 65.6504 19.218 70.581 20.0977C75.5116 20.9775 111.996 59.9619 112.897 60.9619C113.798 61.9619 110.897 66.9619 108.397 66.9619C105.897 66.9619 98.3967 59.6865 98.3967 59.6865L77.619 84.3194Z" fill="#222222" stroke="black"/>
<path fill-rule="evenodd" clip-rule="evenodd" d="M18.393 88.0005H71.5C71.5 88.0005 46 117 35 129C24.5472 139 23 136.5 20 136.5C17 136.5 5.49959 129 2.99982 124C0.500054 119 1.66027 111.5 4.32675 107.5C6.99322 103.5 18.393 88.0005 18.393 88.0005Z" fill="#C35642" stroke="black" stroke-width="3"/>
<circle cx="4.39875" cy="4.39875" r="3.89875" transform="matrix(-1 0 0 1 17.625 108.519)" stroke="black"/>
<circle cx="4.39875" cy="4.39875" r="3.89875" transform="matrix(-1 0 0 1 26.4229 122.595)" stroke="black"/>
<circle cx="4.39875" cy="4.39875" r="3.89875" transform="matrix(-1 0 0 1 35.2197 105)" stroke="black"/>
<circle cx="4.39875" cy="4.39875" r="4.39875" transform="matrix(-1 0 0 1 90.626 16.2786)" fill="#C35642"/>
<circle cx="4.39875" cy="4.39875" r="4.39875" transform="matrix(-1 0 0 1 106.626 7)" fill="#C35642"/>
<circle cx="6.15825" cy="6.15825" r="6.15825" transform="matrix(-1 0 0 1 109.981 26.8357)" fill="#C35642"/>
<path d="M107.827 70.0005L97.8271 61.0005L105.827 52.5005L114.327 61.0005C114.423 64.8582 111.327 70.0005 107.827 70.0005Z" fill="white"/>
</svg>
