<svg width="467" height="57" viewBox="0 0 467 57" fill="none" xmlns="http://www.w3.org/2000/svg">
<mask id="path-1-outside-1_18_13" maskUnits="userSpaceOnUse" x="145" y="9" width="126" height="37" fill="black">
<rect fill="white" x="145" y="9" width="126" height="37"/>
<path d="M164.672 10.875V45H156.445V10.875H164.672ZM174.938 10.875V17.2266H146.414V10.875H174.938ZM201.422 24.4219V30.75H183.914V24.4219H201.422ZM186.656 10.875V45H178.43V10.875H186.656ZM206.953 10.875V45H198.75V10.875H206.953ZM227.062 18.0469L218.742 45H209.906L222.445 10.875H228.047L227.062 18.0469ZM233.953 45L225.609 18.0469L224.531 10.875H230.203L242.812 45H233.953ZM233.625 32.2734V38.625H216.117V32.2734H233.625ZM259.031 10.875V45H250.805V10.875H259.031ZM269.297 10.875V17.2266H240.773V10.875H269.297Z"/>
</mask>
<path d="M164.672 10.875H165.672V9.875H164.672V10.875ZM164.672 45V46H165.672V45H164.672ZM156.445 45H155.445V46H156.445V45ZM156.445 10.875V9.875H155.445V10.875H156.445ZM174.938 10.875H175.938V9.875H174.938V10.875ZM174.938 17.2266V18.2266H175.938V17.2266H174.938ZM146.414 17.2266H145.414V18.2266H146.414V17.2266ZM146.414 10.875V9.875H145.414V10.875H146.414ZM164.672 10.875H163.672V45H164.672H165.672V10.875H164.672ZM164.672 45V44H156.445V45V46H164.672V45ZM156.445 45H157.445V10.875H156.445H155.445V45H156.445ZM156.445 10.875V11.875H164.672V10.875V9.875H156.445V10.875ZM174.938 10.875H173.938V17.2266H174.938H175.938V10.875H174.938ZM174.938 17.2266V16.2266H146.414V17.2266V18.2266H174.938V17.2266ZM146.414 17.2266H147.414V10.875H146.414H145.414V17.2266H146.414ZM146.414 10.875V11.875H174.938V10.875V9.875H146.414V10.875ZM201.422 24.4219H202.422V23.4219H201.422V24.4219ZM201.422 30.75V31.75H202.422V30.75H201.422ZM183.914 30.75H182.914V31.75H183.914V30.75ZM183.914 24.4219V23.4219H182.914V24.4219H183.914ZM186.656 10.875H187.656V9.875H186.656V10.875ZM186.656 45V46H187.656V45H186.656ZM178.43 45H177.43V46H178.43V45ZM178.43 10.875V9.875H177.43V10.875H178.43ZM206.953 10.875H207.953V9.875H206.953V10.875ZM206.953 45V46H207.953V45H206.953ZM198.75 45H197.75V46H198.75V45ZM198.75 10.875V9.875H197.75V10.875H198.75ZM201.422 24.4219H200.422V30.75H201.422H202.422V24.4219H201.422ZM201.422 30.75V29.75H183.914V30.75V31.75H201.422V30.75ZM183.914 30.75H184.914V24.4219H183.914H182.914V30.75H183.914ZM183.914 24.4219V25.4219H201.422V24.4219V23.4219H183.914V24.4219ZM186.656 10.875H185.656V45H186.656H187.656V10.875H186.656ZM186.656 45V44H178.43V45V46H186.656V45ZM178.43 45H179.43V10.875H178.43H177.43V45H178.43ZM178.43 10.875V11.875H186.656V10.875V9.875H178.43V10.875ZM206.953 10.875H205.953V45H206.953H207.953V10.875H206.953ZM206.953 45V44H198.75V45V46H206.953V45ZM198.75 45H199.75V10.875H198.75H197.75V45H198.75ZM198.75 10.875V11.875H206.953V10.875V9.875H198.75V10.875ZM227.062 18.0469L228.018 18.3418L228.042 18.2638L228.053 18.1829L227.062 18.0469ZM218.742 45V46H219.48L219.698 45.295L218.742 45ZM209.906 45L208.968 44.6551L208.473 46H209.906V45ZM222.445 10.875V9.875H221.747L221.507 10.5301L222.445 10.875ZM228.047 10.875L229.038 11.011L229.194 9.875H228.047V10.875ZM233.953 45L232.998 45.2957L233.216 46H233.953V45ZM225.609 18.0469L224.62 18.1955L224.632 18.2703L224.654 18.3426L225.609 18.0469ZM224.531 10.875V9.875H223.37L223.542 11.0237L224.531 10.875ZM230.203 10.875L231.141 10.5284L230.9 9.875H230.203V10.875ZM242.812 45V46H244.248L243.751 44.6534L242.812 45ZM233.625 32.2734H234.625V31.2734H233.625V32.2734ZM233.625 38.625V39.625H234.625V38.625H233.625ZM216.117 38.625H215.117V39.625H216.117V38.625ZM216.117 32.2734V31.2734H215.117V32.2734H216.117ZM227.062 18.0469L226.107 17.7519L217.787 44.705L218.742 45L219.698 45.295L228.018 18.3418L227.062 18.0469ZM218.742 45V44H209.906V45V46H218.742V45ZM209.906 45L210.845 45.3449L223.384 11.2199L222.445 10.875L221.507 10.5301L208.968 44.6551L209.906 45ZM222.445 10.875V11.875H228.047V10.875V9.875H222.445V10.875ZM228.047 10.875L227.056 10.739L226.072 17.9109L227.062 18.0469L228.053 18.1829L229.038 11.011L228.047 10.875ZM233.953 45L234.908 44.7043L226.565 17.7512L225.609 18.0469L224.654 18.3426L232.998 45.2957L233.953 45ZM225.609 18.0469L226.598 17.8982L225.52 10.7263L224.531 10.875L223.542 11.0237L224.62 18.1955L225.609 18.0469ZM224.531 10.875V11.875H230.203V10.875V9.875H224.531V10.875ZM230.203 10.875L229.265 11.2216L241.874 45.3466L242.812 45L243.751 44.6534L231.141 10.5284L230.203 10.875ZM242.812 45V44H233.953V45V46H242.812V45ZM233.625 32.2734H232.625V38.625H233.625H234.625V32.2734H233.625ZM233.625 38.625V37.625H216.117V38.625V39.625H233.625V38.625ZM216.117 38.625H217.117V32.2734H216.117H215.117V38.625H216.117ZM216.117 32.2734V33.2734H233.625V32.2734V31.2734H216.117V32.2734ZM259.031 10.875H260.031V9.875H259.031V10.875ZM259.031 45V46H260.031V45H259.031ZM250.805 45H249.805V46H250.805V45ZM250.805 10.875V9.875H249.805V10.875H250.805ZM269.297 10.875H270.297V9.875H269.297V10.875ZM269.297 17.2266V18.2266H270.297V17.2266H269.297ZM240.773 17.2266H239.773V18.2266H240.773V17.2266ZM240.773 10.875V9.875H239.773V10.875H240.773ZM259.031 10.875H258.031V45H259.031H260.031V10.875H259.031ZM259.031 45V44H250.805V45V46H259.031V45ZM250.805 45H251.805V10.875H250.805H249.805V45H250.805ZM250.805 10.875V11.875H259.031V10.875V9.875H250.805V10.875ZM269.297 10.875H268.297V17.2266H269.297H270.297V10.875H269.297ZM269.297 17.2266V16.2266H240.773V17.2266V18.2266H269.297V17.2266ZM240.773 17.2266H241.773V10.875H240.773H239.773V17.2266H240.773ZM240.773 10.875V11.875H269.297V10.875V9.875H240.773V10.875Z" fill="black" mask="url(#path-1-outside-1_18_13)"/>
<mask id="path-3-outside-2_18_13" maskUnits="userSpaceOnUse" x="286" y="8" width="181" height="38" fill="black">
<rect fill="white" x="286" y="8" width="181" height="38"/>
<path d="M295.344 9.875V44H287.141V9.875H295.344ZM329.633 9.875V44H321.43L309.359 22.7656V44H301.133V9.875H309.359L321.43 31.1094V9.875H329.633ZM352.414 34.9297C352.414 34.3984 352.336 33.9219 352.18 33.5C352.023 33.0625 351.734 32.6562 351.312 32.2812C350.891 31.9062 350.281 31.5312 349.484 31.1562C348.703 30.7656 347.672 30.3594 346.391 29.9375C344.891 29.4375 343.445 28.875 342.055 28.25C340.664 27.6094 339.422 26.8672 338.328 26.0234C337.234 25.1641 336.367 24.1641 335.727 23.0234C335.086 21.8672 334.766 20.5234 334.766 18.9922C334.766 17.5234 335.094 16.2031 335.75 15.0312C336.406 13.8437 337.32 12.8359 338.492 12.0078C339.68 11.1641 341.07 10.5234 342.664 10.0859C344.258 9.63281 346 9.40625 347.891 9.40625C350.391 9.40625 352.594 9.84375 354.5 10.7188C356.422 11.5781 357.922 12.8047 359 14.3984C360.094 15.9766 360.641 17.8438 360.641 20H352.461C352.461 19.1406 352.281 18.3828 351.922 17.7266C351.578 17.0703 351.055 16.5547 350.352 16.1797C349.648 15.8047 348.766 15.6172 347.703 15.6172C346.672 15.6172 345.805 15.7734 345.102 16.0859C344.398 16.3984 343.867 16.8203 343.508 17.3516C343.148 17.8672 342.969 18.4375 342.969 19.0625C342.969 19.5781 343.109 20.0469 343.391 20.4688C343.688 20.875 344.102 21.2578 344.633 21.6172C345.18 21.9766 345.836 22.3203 346.602 22.6484C347.383 22.9766 348.258 23.2969 349.227 23.6094C351.039 24.1875 352.648 24.8359 354.055 25.5547C355.477 26.2578 356.672 27.0625 357.641 27.9688C358.625 28.8594 359.367 29.875 359.867 31.0156C360.383 32.1562 360.641 33.4453 360.641 34.8828C360.641 36.4141 360.344 37.7734 359.75 38.9609C359.156 40.1484 358.305 41.1562 357.195 41.9844C356.086 42.7969 354.758 43.4141 353.211 43.8359C351.664 44.2578 349.938 44.4688 348.031 44.4688C346.281 44.4688 344.555 44.25 342.852 43.8125C341.164 43.3594 339.633 42.6719 338.258 41.75C336.883 40.8125 335.781 39.6172 334.953 38.1641C334.141 36.6953 333.734 34.9531 333.734 32.9375H341.984C341.984 33.9375 342.117 34.7812 342.383 35.4688C342.648 36.1562 343.039 36.7109 343.555 37.1328C344.07 37.5391 344.703 37.8359 345.453 38.0234C346.203 38.1953 347.062 38.2812 348.031 38.2812C349.078 38.2812 349.922 38.1328 350.562 37.8359C351.203 37.5234 351.672 37.1172 351.969 36.6172C352.266 36.1016 352.414 35.5391 352.414 34.9297ZM378.5 32.4219H370.016V26.0703H378.5C379.656 26.0703 380.594 25.875 381.312 25.4844C382.031 25.0938 382.555 24.5547 382.883 23.8672C383.227 23.1641 383.398 22.375 383.398 21.5C383.398 20.5625 383.227 19.6953 382.883 18.8984C382.555 18.1016 382.031 17.4609 381.312 16.9766C380.594 16.4766 379.656 16.2266 378.5 16.2266H373.109V44H364.883V9.875H378.5C381.234 9.875 383.586 10.375 385.555 11.375C387.539 12.375 389.062 13.75 390.125 15.5C391.188 17.2344 391.719 19.2188 391.719 21.4531C391.719 23.6562 391.188 25.5781 390.125 27.2188C389.062 28.8594 387.539 30.1406 385.555 31.0625C383.586 31.9688 381.234 32.4219 378.5 32.4219ZM404.891 9.875V44H396.688V9.875H404.891ZM410.68 9.875H424.109C426.734 9.875 429.016 10.2656 430.953 11.0469C432.891 11.8281 434.383 12.9844 435.43 14.5156C436.492 16.0469 437.023 17.9375 437.023 20.1875C437.023 22.1406 436.719 23.7734 436.109 25.0859C435.5 26.3984 434.648 27.4844 433.555 28.3438C432.477 29.1875 431.219 29.8828 429.781 30.4297L427.086 31.9531H415.812L415.766 25.6016H424.109C425.156 25.6016 426.023 25.4141 426.711 25.0391C427.398 24.6641 427.914 24.1328 428.258 23.4453C428.617 22.7422 428.797 21.9062 428.797 20.9375C428.797 19.9531 428.617 19.1094 428.258 18.4062C427.898 17.7031 427.367 17.1641 426.664 16.7891C425.977 16.4141 425.125 16.2266 424.109 16.2266H418.906V44H410.68V9.875ZM429.359 44L421.812 28.9062L430.531 28.8594L438.172 43.6484V44H429.359ZM465.477 37.6719V44H447.289V37.6719H465.477ZM450.219 9.875V44H441.992V9.875H450.219ZM463.133 23.4219V29.5391H447.289V23.4219H463.133ZM465.547 9.875V16.2266H447.289V9.875H465.547Z"/>
</mask>
<path d="M295.344 9.875V44H287.141V9.875H295.344ZM329.633 9.875V44H321.43L309.359 22.7656V44H301.133V9.875H309.359L321.43 31.1094V9.875H329.633ZM352.414 34.9297C352.414 34.3984 352.336 33.9219 352.18 33.5C352.023 33.0625 351.734 32.6562 351.312 32.2812C350.891 31.9062 350.281 31.5312 349.484 31.1562C348.703 30.7656 347.672 30.3594 346.391 29.9375C344.891 29.4375 343.445 28.875 342.055 28.25C340.664 27.6094 339.422 26.8672 338.328 26.0234C337.234 25.1641 336.367 24.1641 335.727 23.0234C335.086 21.8672 334.766 20.5234 334.766 18.9922C334.766 17.5234 335.094 16.2031 335.75 15.0312C336.406 13.8437 337.32 12.8359 338.492 12.0078C339.68 11.1641 341.07 10.5234 342.664 10.0859C344.258 9.63281 346 9.40625 347.891 9.40625C350.391 9.40625 352.594 9.84375 354.5 10.7188C356.422 11.5781 357.922 12.8047 359 14.3984C360.094 15.9766 360.641 17.8438 360.641 20H352.461C352.461 19.1406 352.281 18.3828 351.922 17.7266C351.578 17.0703 351.055 16.5547 350.352 16.1797C349.648 15.8047 348.766 15.6172 347.703 15.6172C346.672 15.6172 345.805 15.7734 345.102 16.0859C344.398 16.3984 343.867 16.8203 343.508 17.3516C343.148 17.8672 342.969 18.4375 342.969 19.0625C342.969 19.5781 343.109 20.0469 343.391 20.4688C343.688 20.875 344.102 21.2578 344.633 21.6172C345.18 21.9766 345.836 22.3203 346.602 22.6484C347.383 22.9766 348.258 23.2969 349.227 23.6094C351.039 24.1875 352.648 24.8359 354.055 25.5547C355.477 26.2578 356.672 27.0625 357.641 27.9688C358.625 28.8594 359.367 29.875 359.867 31.0156C360.383 32.1562 360.641 33.4453 360.641 34.8828C360.641 36.4141 360.344 37.7734 359.75 38.9609C359.156 40.1484 358.305 41.1562 357.195 41.9844C356.086 42.7969 354.758 43.4141 353.211 43.8359C351.664 44.2578 349.938 44.4688 348.031 44.4688C346.281 44.4688 344.555 44.25 342.852 43.8125C341.164 43.3594 339.633 42.6719 338.258 41.75C336.883 40.8125 335.781 39.6172 334.953 38.1641C334.141 36.6953 333.734 34.9531 333.734 32.9375H341.984C341.984 33.9375 342.117 34.7812 342.383 35.4688C342.648 36.1562 343.039 36.7109 343.555 37.1328C344.07 37.5391 344.703 37.8359 345.453 38.0234C346.203 38.1953 347.062 38.2812 348.031 38.2812C349.078 38.2812 349.922 38.1328 350.562 37.8359C351.203 37.5234 351.672 37.1172 351.969 36.6172C352.266 36.1016 352.414 35.5391 352.414 34.9297ZM378.5 32.4219H370.016V26.0703H378.5C379.656 26.0703 380.594 25.875 381.312 25.4844C382.031 25.0938 382.555 24.5547 382.883 23.8672C383.227 23.1641 383.398 22.375 383.398 21.5C383.398 20.5625 383.227 19.6953 382.883 18.8984C382.555 18.1016 382.031 17.4609 381.312 16.9766C380.594 16.4766 379.656 16.2266 378.5 16.2266H373.109V44H364.883V9.875H378.5C381.234 9.875 383.586 10.375 385.555 11.375C387.539 12.375 389.062 13.75 390.125 15.5C391.188 17.2344 391.719 19.2188 391.719 21.4531C391.719 23.6562 391.188 25.5781 390.125 27.2188C389.062 28.8594 387.539 30.1406 385.555 31.0625C383.586 31.9688 381.234 32.4219 378.5 32.4219ZM404.891 9.875V44H396.688V9.875H404.891ZM410.68 9.875H424.109C426.734 9.875 429.016 10.2656 430.953 11.0469C432.891 11.8281 434.383 12.9844 435.43 14.5156C436.492 16.0469 437.023 17.9375 437.023 20.1875C437.023 22.1406 436.719 23.7734 436.109 25.0859C435.5 26.3984 434.648 27.4844 433.555 28.3438C432.477 29.1875 431.219 29.8828 429.781 30.4297L427.086 31.9531H415.812L415.766 25.6016H424.109C425.156 25.6016 426.023 25.4141 426.711 25.0391C427.398 24.6641 427.914 24.1328 428.258 23.4453C428.617 22.7422 428.797 21.9062 428.797 20.9375C428.797 19.9531 428.617 19.1094 428.258 18.4062C427.898 17.7031 427.367 17.1641 426.664 16.7891C425.977 16.4141 425.125 16.2266 424.109 16.2266H418.906V44H410.68V9.875ZM429.359 44L421.812 28.9062L430.531 28.8594L438.172 43.6484V44H429.359ZM465.477 37.6719V44H447.289V37.6719H465.477ZM450.219 9.875V44H441.992V9.875H450.219ZM463.133 23.4219V29.5391H447.289V23.4219H463.133ZM465.547 9.875V16.2266H447.289V9.875H465.547Z" fill="black"/>
<path d="M295.344 9.875H296.344V8.875H295.344V9.875ZM295.344 44V45H296.344V44H295.344ZM287.141 44H286.141V45H287.141V44ZM287.141 9.875V8.875H286.141V9.875H287.141ZM295.344 9.875H294.344V44H295.344H296.344V9.875H295.344ZM295.344 44V43H287.141V44V45H295.344V44ZM287.141 44H288.141V9.875H287.141H286.141V44H287.141ZM287.141 9.875V10.875H295.344V9.875V8.875H287.141V9.875ZM329.633 9.875H330.633V8.875H329.633V9.875ZM329.633 44V45H330.633V44H329.633ZM321.43 44L320.56 44.4942L320.848 45H321.43V44ZM309.359 22.7656L310.229 22.2715L308.359 18.9828V22.7656H309.359ZM309.359 44V45H310.359V44H309.359ZM301.133 44H300.133V45H301.133V44ZM301.133 9.875V8.875H300.133V9.875H301.133ZM309.359 9.875L310.229 9.38083L309.941 8.875H309.359V9.875ZM321.43 31.1094L320.56 31.6035L322.43 34.8922V31.1094H321.43ZM321.43 9.875V8.875H320.43V9.875H321.43ZM329.633 9.875H328.633V44H329.633H330.633V9.875H329.633ZM329.633 44V43H321.43V44V45H329.633V44ZM321.43 44L322.299 43.5058L310.229 22.2715L309.359 22.7656L308.49 23.2598L320.56 44.4942L321.43 44ZM309.359 22.7656H308.359V44H309.359H310.359V22.7656H309.359ZM309.359 44V43H301.133V44V45H309.359V44ZM301.133 44H302.133V9.875H301.133H300.133V44H301.133ZM301.133 9.875V10.875H309.359V9.875V8.875H301.133V9.875ZM309.359 9.875L308.49 10.3692L320.56 31.6035L321.43 31.1094L322.299 30.6152L310.229 9.38083L309.359 9.875ZM321.43 31.1094H322.43V9.875H321.43H320.43V31.1094H321.43ZM321.43 9.875V10.875H329.633V9.875V8.875H321.43V9.875ZM352.18 33.5L351.238 33.8364L351.242 33.8473L352.18 33.5ZM349.484 31.1562L349.037 32.0507L349.048 32.056L349.059 32.0611L349.484 31.1562ZM346.391 29.9375L346.074 30.8862L346.078 30.8873L346.391 29.9375ZM342.055 28.25L341.636 29.1583L341.645 29.1621L342.055 28.25ZM338.328 26.0234L337.71 26.8098L337.717 26.8152L338.328 26.0234ZM335.727 23.0234L334.852 23.5081L334.855 23.5131L335.727 23.0234ZM335.75 15.0312L336.623 15.5199L336.625 15.5149L335.75 15.0312ZM338.492 12.0078L339.069 12.8245L339.071 12.823L338.492 12.0078ZM342.664 10.0859L342.929 11.0503L342.938 11.0478L342.664 10.0859ZM354.5 10.7188L354.083 11.6276L354.092 11.6316L354.5 10.7188ZM359 14.3984L358.172 14.9588L358.178 14.9681L359 14.3984ZM360.641 20V21H361.641V20H360.641ZM352.461 20H351.461V21H352.461V20ZM351.922 17.7266L351.036 18.1906L351.04 18.1988L351.045 18.2069L351.922 17.7266ZM343.508 17.3516L344.328 17.9234L344.336 17.9119L343.508 17.3516ZM343.391 20.4688L342.559 21.0235L342.571 21.0414L342.583 21.0588L343.391 20.4688ZM344.633 21.6172L344.072 22.4455L344.084 22.4529L344.633 21.6172ZM346.602 22.6484L346.208 23.5676L346.214 23.5704L346.602 22.6484ZM349.227 23.6094L348.92 24.5611L348.923 24.5621L349.227 23.6094ZM354.055 25.5547L353.6 26.4452L353.611 26.4511L354.055 25.5547ZM357.641 27.9688L356.957 28.699L356.964 28.7047L356.97 28.7103L357.641 27.9688ZM359.867 31.0156L358.951 31.4171L358.956 31.4275L359.867 31.0156ZM357.195 41.9844L357.786 42.7912L357.794 42.7857L357.195 41.9844ZM342.852 43.8125L342.592 44.7783L342.603 44.7811L342.852 43.8125ZM338.258 41.75L337.694 42.5763L337.701 42.5806L338.258 41.75ZM334.953 38.1641L334.078 38.6482L334.084 38.6592L334.953 38.1641ZM333.734 32.9375V31.9375H332.734V32.9375H333.734ZM341.984 32.9375H342.984V31.9375H341.984V32.9375ZM343.555 37.1328L342.921 37.9068L342.929 37.9126L342.936 37.9183L343.555 37.1328ZM345.453 38.0234L345.211 38.9936L345.22 38.996L345.23 38.9982L345.453 38.0234ZM350.562 37.8359L350.983 38.7432L350.992 38.7391L351.001 38.7347L350.562 37.8359ZM351.969 36.6172L352.829 37.1278L352.835 37.1162L351.969 36.6172ZM352.414 34.9297H353.414C353.414 34.3009 353.322 33.7038 353.117 33.1527L352.18 33.5L351.242 33.8473C351.35 34.1399 351.414 34.496 351.414 34.9297H352.414ZM352.18 33.5L353.121 33.1637C352.898 32.5374 352.497 31.9966 351.977 31.5338L351.312 32.2812L350.648 33.0287C350.971 33.3159 351.149 33.5876 351.238 33.8363L352.18 33.5ZM351.312 32.2812L351.977 31.5338C351.455 31.07 350.751 30.6471 349.91 30.2514L349.484 31.1562L349.059 32.0611C349.812 32.4154 350.326 32.7425 350.648 33.0287L351.312 32.2812ZM349.484 31.1562L349.932 30.2618C349.09 29.8412 348.009 29.4175 346.703 28.9877L346.391 29.9375L346.078 30.8873C347.335 31.3012 348.316 31.6901 349.037 32.0507L349.484 31.1562ZM346.391 29.9375L346.707 28.9888C345.238 28.499 343.824 27.9486 342.465 27.3379L342.055 28.25L341.645 29.1621C343.067 29.8014 344.544 30.376 346.074 30.8862L346.391 29.9375ZM342.055 28.25L342.473 27.3417C341.144 26.7292 339.967 26.0248 338.939 25.2317L338.328 26.0234L337.717 26.8152C338.877 27.7096 340.185 28.4895 341.636 29.1583L342.055 28.25ZM338.328 26.0234L338.946 25.2371C337.949 24.4538 337.171 23.5526 336.598 22.5337L335.727 23.0234L334.855 23.5131C335.564 24.7755 336.52 25.8744 337.71 26.8098L338.328 26.0234ZM335.727 23.0234L336.601 22.5388C336.055 21.5529 335.766 20.381 335.766 18.9922H334.766H333.766C333.766 20.6659 334.117 22.1815 334.852 23.5081L335.727 23.0234ZM334.766 18.9922H335.766C335.766 17.6781 336.058 16.5287 336.623 15.5199L335.75 15.0312L334.877 14.5426C334.13 15.8775 333.766 17.3688 333.766 18.9922H334.766ZM335.75 15.0312L336.625 15.5149C337.204 14.4671 338.013 13.5707 339.069 12.8245L338.492 12.0078L337.915 11.1911C336.627 12.1012 335.608 13.2204 334.875 14.5476L335.75 15.0312ZM338.492 12.0078L339.071 12.823C340.152 12.0554 341.433 11.4609 342.929 11.0503L342.664 10.0859L342.399 9.12161C340.708 9.58594 339.208 10.2727 337.913 11.1926L338.492 12.0078ZM342.664 10.0859L342.938 11.0478C344.431 10.6233 346.08 10.4062 347.891 10.4062V9.40625V8.40625C345.92 8.40625 344.085 8.64237 342.391 9.12406L342.664 10.0859ZM347.891 9.40625V10.4062C350.274 10.4062 352.33 10.8231 354.083 11.6276L354.5 10.7188L354.917 9.80992C352.857 8.86443 350.507 8.40625 347.891 8.40625V9.40625ZM354.5 10.7188L354.092 11.6316C355.86 12.4223 357.208 13.5338 358.172 14.9587L359 14.3984L359.828 13.8381C358.636 12.0756 356.984 10.7339 354.908 9.80586L354.5 10.7188ZM359 14.3984L358.178 14.9681C359.142 16.3587 359.641 18.0213 359.641 20H360.641H361.641C361.641 17.6662 361.046 15.5944 359.822 13.8288L359 14.3984ZM360.641 20V19H352.461V20V21H360.641V20ZM352.461 20H353.461C353.461 18.9979 353.25 18.0704 352.799 17.2462L351.922 17.7266L351.045 18.2069C351.312 18.6953 351.461 19.2833 351.461 20H352.461ZM351.922 17.7266L352.808 17.2626C352.364 16.4147 351.688 15.7594 350.822 15.2973L350.352 16.1797L349.881 17.062C350.421 17.35 350.793 17.726 351.036 18.1906L351.922 17.7266ZM350.352 16.1797L350.822 15.2973C349.934 14.8237 348.877 14.6172 347.703 14.6172V15.6172V16.6172C348.654 16.6172 349.363 16.7857 349.881 17.062L350.352 16.1797ZM347.703 15.6172V14.6172C346.577 14.6172 345.562 14.787 344.695 15.1721L345.102 16.0859L345.508 16.9997C346.047 16.7599 346.767 16.6172 347.703 16.6172V15.6172ZM345.102 16.0859L344.695 15.1721C343.856 15.5453 343.163 16.0765 342.68 16.7913L343.508 17.3516L344.336 17.9119C344.571 17.5641 344.941 17.2515 345.508 16.9997L345.102 16.0859ZM343.508 17.3516L342.687 16.7798C342.212 17.4621 341.969 18.2318 341.969 19.0625H342.969H343.969C343.969 18.6432 344.085 18.2722 344.328 17.9234L343.508 17.3516ZM342.969 19.0625H341.969C341.969 19.772 342.166 20.4344 342.559 21.0235L343.391 20.4688L344.223 19.914C344.053 19.6594 343.969 19.3843 343.969 19.0625H342.969ZM343.391 20.4688L342.583 21.0588C342.964 21.5797 343.471 22.0384 344.073 22.4455L344.633 21.6172L345.193 20.7889C344.732 20.4772 344.411 20.1703 344.198 19.8787L343.391 20.4688ZM344.633 21.6172L344.084 22.4529C344.691 22.8519 345.402 23.2222 346.208 23.5676L346.602 22.6484L346.995 21.7293C346.27 21.4184 345.669 21.1012 345.182 20.7815L344.633 21.6172ZM346.602 22.6484L346.214 23.5704C347.026 23.9115 347.929 24.2415 348.92 24.5611L349.227 23.6094L349.534 22.6577C348.587 22.3522 347.739 22.0416 346.989 21.7265L346.602 22.6484ZM349.227 23.6094L348.923 24.5621C350.693 25.1269 352.251 25.7556 353.6 26.4451L354.055 25.5547L354.51 24.6643C353.046 23.9162 351.385 23.2481 349.53 22.6567L349.227 23.6094ZM354.055 25.5547L353.611 26.4511C354.962 27.1191 356.072 27.8711 356.957 28.699L357.641 27.9688L358.324 27.2385C357.271 26.2539 355.991 25.3966 354.498 24.6583L354.055 25.5547ZM357.641 27.9688L356.97 28.7103C357.856 29.5125 358.512 30.4143 358.951 31.4171L359.867 31.0156L360.783 30.6141C360.223 29.3357 359.394 28.2063 358.312 27.2272L357.641 27.9688ZM359.867 31.0156L358.956 31.4275C359.405 32.4209 359.641 33.5664 359.641 34.8828H360.641H361.641C361.641 33.3243 361.361 31.8916 360.778 30.6037L359.867 31.0156ZM360.641 34.8828H359.641C359.641 36.2827 359.37 37.4849 358.856 38.5137L359.75 38.9609L360.644 39.4082C361.318 38.0619 361.641 36.5455 361.641 34.8828H360.641ZM359.75 38.9609L358.856 38.5137C358.335 39.5557 357.587 40.4441 356.597 41.183L357.195 41.9844L357.794 42.7857C359.022 41.8684 359.978 40.7412 360.644 39.4082L359.75 38.9609ZM357.195 41.9844L356.604 41.1776C355.609 41.9069 354.396 42.4762 352.948 42.8712L353.211 43.8359L353.474 44.8007C355.12 44.3519 356.563 43.6868 357.786 42.7911L357.195 41.9844ZM353.211 43.8359L352.948 42.8712C351.501 43.2657 349.865 43.4688 348.031 43.4688V44.4688V45.4688C350.01 45.4688 351.827 45.2499 353.474 44.8007L353.211 43.8359ZM348.031 44.4688V43.4688C346.366 43.4688 344.723 43.2607 343.1 42.8439L342.852 43.8125L342.603 44.7811C344.387 45.2393 346.197 45.4688 348.031 45.4688V44.4688ZM342.852 43.8125L343.111 42.8467C341.523 42.4204 340.094 41.7769 338.815 40.9194L338.258 41.75L337.701 42.5806C339.172 43.5669 340.805 44.2983 342.592 44.7783L342.852 43.8125ZM338.258 41.75L338.821 40.9238C337.572 40.0724 336.575 38.9906 335.822 37.6689L334.953 38.1641L334.084 38.6592C334.987 40.2438 336.193 41.5526 337.694 42.5762L338.258 41.75ZM334.953 38.1641L335.828 37.68C335.113 36.3865 334.734 34.8177 334.734 32.9375H333.734H332.734C332.734 35.0885 333.169 37.0041 334.078 38.6481L334.953 38.1641ZM333.734 32.9375V33.9375H341.984V32.9375V31.9375H333.734V32.9375ZM341.984 32.9375H340.984C340.984 34.0196 341.127 34.9937 341.45 35.8291L342.383 35.4688L343.316 35.1084C343.107 34.5688 342.984 33.8554 342.984 32.9375H341.984ZM342.383 35.4688L341.45 35.8291C341.771 36.6605 342.258 37.3639 342.921 37.9068L343.555 37.1328L344.188 36.3589C343.82 36.0579 343.526 35.652 343.316 35.1084L342.383 35.4688ZM343.555 37.1328L342.936 37.9183C343.58 38.4262 344.348 38.7778 345.211 38.9936L345.453 38.0234L345.696 37.0533C345.059 36.894 344.56 36.652 344.174 36.3473L343.555 37.1328ZM345.453 38.0234L345.23 38.9982C346.069 39.1905 347.006 39.2812 348.031 39.2812V38.2812V37.2812C347.119 37.2812 346.337 37.2001 345.677 37.0487L345.453 38.0234ZM348.031 38.2812V39.2812C349.159 39.2812 350.163 39.1234 350.983 38.7432L350.562 37.8359L350.142 36.9286C349.681 37.1422 348.997 37.2812 348.031 37.2812V38.2812ZM350.562 37.8359L351.001 38.7347C351.777 38.3561 352.412 37.8299 352.829 37.1277L351.969 36.6172L351.109 36.1066C350.932 36.4045 350.629 36.6908 350.124 36.9372L350.562 37.8359ZM351.969 36.6172L352.835 37.1162C353.222 36.445 353.414 35.7098 353.414 34.9297H352.414H351.414C351.414 35.3684 351.309 35.7582 351.102 36.1182L351.969 36.6172ZM370.016 32.4219H369.016V33.4219H370.016V32.4219ZM370.016 26.0703V25.0703H369.016V26.0703H370.016ZM382.883 23.8672L381.984 23.428L381.98 23.4365L382.883 23.8672ZM382.883 18.8984L381.958 19.2792L381.961 19.2869L381.965 19.2945L382.883 18.8984ZM381.312 16.9766L380.741 17.7975L380.748 17.8017L380.754 17.8058L381.312 16.9766ZM373.109 16.2266V15.2266H372.109V16.2266H373.109ZM373.109 44V45H374.109V44H373.109ZM364.883 44H363.883V45H364.883V44ZM364.883 9.875V8.875H363.883V9.875H364.883ZM385.555 11.375L385.102 12.2666L385.105 12.268L385.555 11.375ZM390.125 15.5L389.27 16.019L389.272 16.0224L390.125 15.5ZM385.555 31.0625L385.973 31.9709L385.976 31.9694L385.555 31.0625ZM378.5 32.4219V31.4219H370.016V32.4219V33.4219H378.5V32.4219ZM370.016 32.4219H371.016V26.0703H370.016H369.016V32.4219H370.016ZM370.016 26.0703V27.0703H378.5V26.0703V25.0703H370.016V26.0703ZM378.5 26.0703V27.0703C379.758 27.0703 380.877 26.8594 381.79 26.363L381.312 25.4844L380.835 24.6058C380.311 24.8906 379.554 25.0703 378.5 25.0703V26.0703ZM381.312 25.4844L381.79 26.363C382.68 25.8795 383.359 25.1902 383.785 24.2979L382.883 23.8672L381.98 23.4365C381.75 23.9192 381.383 24.308 380.835 24.6058L381.312 25.4844ZM382.883 23.8672L383.781 24.3064C384.199 23.4511 384.398 22.5091 384.398 21.5H383.398H382.398C382.398 22.2409 382.254 22.877 381.984 23.428L382.883 23.8672ZM383.398 21.5H384.398C384.398 20.4373 384.203 19.4341 383.801 18.5023L382.883 18.8984L381.965 19.2945C382.25 19.9566 382.398 20.6877 382.398 21.5H383.398ZM382.883 18.8984L383.807 18.5177C383.404 17.5374 382.753 16.7412 381.871 16.1473L381.312 16.9766L380.754 17.8058C381.31 18.1807 381.706 18.6657 381.958 19.2792L382.883 18.8984ZM381.312 16.9766L381.884 16.1557C380.951 15.5069 379.796 15.2266 378.5 15.2266V16.2266V17.2266C379.517 17.2266 380.237 17.4462 380.741 17.7975L381.312 16.9766ZM378.5 16.2266V15.2266H373.109V16.2266V17.2266H378.5V16.2266ZM373.109 16.2266H372.109V44H373.109H374.109V16.2266H373.109ZM373.109 44V43H364.883V44V45H373.109V44ZM364.883 44H365.883V9.875H364.883H363.883V44H364.883ZM364.883 9.875V10.875H378.5V9.875V8.875H364.883V9.875ZM378.5 9.875V10.875C381.114 10.875 383.303 11.3528 385.102 12.2666L385.555 11.375L386.008 10.4834C383.869 9.39717 381.355 8.875 378.5 8.875V9.875ZM385.555 11.375L385.105 12.268C386.937 13.1912 388.313 14.4427 389.27 16.019L390.125 15.5L390.98 14.981C389.812 13.0573 388.142 11.5588 386.005 10.482L385.555 11.375ZM390.125 15.5L389.272 16.0224C390.229 17.5843 390.719 19.3844 390.719 21.4531H391.719H392.719C392.719 19.0531 392.146 16.8845 390.978 14.9776L390.125 15.5ZM391.719 21.4531H390.719C390.719 23.4886 390.23 25.2164 389.286 26.6752L390.125 27.2188L390.964 27.7623C392.145 25.9398 392.719 23.8239 392.719 21.4531H391.719ZM390.125 27.2188L389.286 26.6752C388.337 28.1394 386.968 29.3033 385.133 30.1556L385.555 31.0625L385.976 31.9694C388.11 30.978 389.788 29.5794 390.964 27.7623L390.125 27.2188ZM385.555 31.0625L385.137 30.1541C383.329 30.9864 381.127 31.4219 378.5 31.4219V32.4219V33.4219C381.342 33.4219 383.843 32.9511 385.973 31.9709L385.555 31.0625ZM404.891 9.875H405.891V8.875H404.891V9.875ZM404.891 44V45H405.891V44H404.891ZM396.688 44H395.688V45H396.688V44ZM396.688 9.875V8.875H395.688V9.875H396.688ZM404.891 9.875H403.891V44H404.891H405.891V9.875H404.891ZM404.891 44V43H396.688V44V45H404.891V44ZM396.688 44H397.688V9.875H396.688H395.688V44H396.688ZM396.688 9.875V10.875H404.891V9.875V8.875H396.688V9.875ZM410.68 9.875V8.875H409.68V9.875H410.68ZM435.43 14.5156L434.604 15.08L434.608 15.0857L435.43 14.5156ZM433.555 28.3438L434.171 29.1313L434.173 29.1301L433.555 28.3438ZM429.781 30.4297L429.426 29.495L429.355 29.5219L429.289 29.5591L429.781 30.4297ZM427.086 31.9531V32.9531H427.349L427.578 32.8237L427.086 31.9531ZM415.812 31.9531L414.813 31.9605L414.82 32.9531H415.812V31.9531ZM415.766 25.6016V24.6016H414.758L414.766 25.6089L415.766 25.6016ZM428.258 23.4453L427.367 22.9902L427.363 22.9981L428.258 23.4453ZM426.664 16.7891L426.185 17.667L426.193 17.6714L426.664 16.7891ZM418.906 16.2266V15.2266H417.906V16.2266H418.906ZM418.906 44V45H419.906V44H418.906ZM410.68 44H409.68V45H410.68V44ZM429.359 44L428.465 44.4472L428.741 45H429.359V44ZM421.812 28.9062L421.807 27.9063L420.199 27.9149L420.918 29.3535L421.812 28.9062ZM430.531 28.8594L431.42 28.4004L431.138 27.8561L430.526 27.8594L430.531 28.8594ZM438.172 43.6484H439.172V43.4054L439.06 43.1894L438.172 43.6484ZM438.172 44V45H439.172V44H438.172ZM410.68 9.875V10.875H424.109V9.875V8.875H410.68V9.875ZM424.109 9.875V10.875C426.638 10.875 428.787 11.2516 430.579 11.9743L430.953 11.0469L431.327 10.1194C429.245 9.27969 426.831 8.875 424.109 8.875V9.875ZM430.953 11.0469L430.579 11.9743C432.358 12.6914 433.682 13.7317 434.604 15.08L435.43 14.5156L436.255 13.9512C435.083 12.237 433.424 10.9649 431.327 10.1194L430.953 11.0469ZM435.43 14.5156L434.608 15.0857C435.532 16.4174 436.023 18.0983 436.023 20.1875H437.023H438.023C438.023 17.7767 437.452 15.6763 436.251 13.9455L435.43 14.5156ZM437.023 20.1875H436.023C436.023 22.0434 435.733 23.5219 435.202 24.6648L436.109 25.0859L437.016 25.507C437.704 24.025 438.023 22.2379 438.023 20.1875H437.023ZM436.109 25.0859L435.202 24.6648C434.657 25.8405 433.902 26.7993 432.937 27.5574L433.555 28.3438L434.173 29.1301C435.395 28.1695 436.343 26.9564 437.016 25.507L436.109 25.0859ZM433.555 28.3438L432.938 27.5562C431.948 28.331 430.781 28.9795 429.426 29.495L429.781 30.4297L430.137 31.3643C431.657 30.7861 433.005 30.044 434.171 29.1313L433.555 28.3438ZM429.781 30.4297L429.289 29.5591L426.594 31.0826L427.086 31.9531L427.578 32.8237L430.273 31.3003L429.781 30.4297ZM427.086 31.9531V30.9531H415.812V31.9531V32.9531H427.086V31.9531ZM415.812 31.9531L416.812 31.9457L416.766 25.5942L415.766 25.6016L414.766 25.6089L414.813 31.9605L415.812 31.9531ZM415.766 25.6016V26.6016H424.109V25.6016V24.6016H415.766V25.6016ZM424.109 25.6016V26.6016C425.269 26.6016 426.314 26.3945 427.19 25.917L426.711 25.0391L426.232 24.1612C425.733 24.4336 425.043 24.6016 424.109 24.6016V25.6016ZM426.711 25.0391L427.19 25.917C428.053 25.4462 428.715 24.7663 429.152 23.8925L428.258 23.4453L427.363 22.9981C427.113 23.4993 426.744 23.882 426.232 24.1612L426.711 25.0391ZM428.258 23.4453L429.148 23.9004C429.594 23.028 429.797 22.0292 429.797 20.9375H428.797H427.797C427.797 21.7833 427.64 22.4564 427.367 22.9902L428.258 23.4453ZM428.797 20.9375H429.797C429.797 19.8331 429.595 18.8257 429.148 17.9511L428.258 18.4062L427.367 18.8614C427.639 19.3931 427.797 20.0731 427.797 20.9375H428.797ZM428.258 18.4062L429.148 17.9511C428.695 17.0643 428.016 16.3769 427.135 15.9067L426.664 16.7891L426.193 17.6714C426.718 17.9512 427.102 18.342 427.367 18.8614L428.258 18.4062ZM426.664 16.7891L427.143 15.9112C426.271 15.4357 425.244 15.2266 424.109 15.2266V16.2266V17.2266C425.006 17.2266 425.682 17.3924 426.185 17.667L426.664 16.7891ZM424.109 16.2266V15.2266H418.906V16.2266V17.2266H424.109V16.2266ZM418.906 16.2266H417.906V44H418.906H419.906V16.2266H418.906ZM418.906 44V43H410.68V44V45H418.906V44ZM410.68 44H411.68V9.875H410.68H409.68V44H410.68ZM429.359 44L430.254 43.5528L422.707 28.459L421.812 28.9062L420.918 29.3535L428.465 44.4472L429.359 44ZM421.812 28.9062L421.818 29.9062L430.537 29.8594L430.531 28.8594L430.526 27.8594L421.807 27.9063L421.812 28.9062ZM430.531 28.8594L429.643 29.3184L437.283 44.1074L438.172 43.6484L439.06 43.1894L431.42 28.4004L430.531 28.8594ZM438.172 43.6484H437.172V44H438.172H439.172V43.6484H438.172ZM438.172 44V43H429.359V44V45H438.172V44ZM465.477 37.6719H466.477V36.6719H465.477V37.6719ZM465.477 44V45H466.477V44H465.477ZM447.289 44H446.289V45H447.289V44ZM447.289 37.6719V36.6719H446.289V37.6719H447.289ZM450.219 9.875H451.219V8.875H450.219V9.875ZM450.219 44V45H451.219V44H450.219ZM441.992 44H440.992V45H441.992V44ZM441.992 9.875V8.875H440.992V9.875H441.992ZM463.133 23.4219H464.133V22.4219H463.133V23.4219ZM463.133 29.5391V30.5391H464.133V29.5391H463.133ZM447.289 29.5391H446.289V30.5391H447.289V29.5391ZM447.289 23.4219V22.4219H446.289V23.4219H447.289ZM465.547 9.875H466.547V8.875H465.547V9.875ZM465.547 16.2266V17.2266H466.547V16.2266H465.547ZM447.289 16.2266H446.289V17.2266H447.289V16.2266ZM447.289 9.875V8.875H446.289V9.875H447.289ZM465.477 37.6719H464.477V44H465.477H466.477V37.6719H465.477ZM465.477 44V43H447.289V44V45H465.477V44ZM447.289 44H448.289V37.6719H447.289H446.289V44H447.289ZM447.289 37.6719V38.6719H465.477V37.6719V36.6719H447.289V37.6719ZM450.219 9.875H449.219V44H450.219H451.219V9.875H450.219ZM450.219 44V43H441.992V44V45H450.219V44ZM441.992 44H442.992V9.875H441.992H440.992V44H441.992ZM441.992 9.875V10.875H450.219V9.875V8.875H441.992V9.875ZM463.133 23.4219H462.133V29.5391H463.133H464.133V23.4219H463.133ZM463.133 29.5391V28.5391H447.289V29.5391V30.5391H463.133V29.5391ZM447.289 29.5391H448.289V23.4219H447.289H446.289V29.5391H447.289ZM447.289 23.4219V24.4219H463.133V23.4219V22.4219H447.289V23.4219ZM465.547 9.875H464.547V16.2266H465.547H466.547V9.875H465.547ZM465.547 16.2266V15.2266H447.289V16.2266V17.2266H465.547V16.2266ZM447.289 16.2266H448.289V9.875H447.289H446.289V16.2266H447.289ZM447.289 9.875V10.875H465.547V9.875V8.875H447.289V9.875Z" fill="black" mask="url(#path-3-outside-2_18_13)"/>
<mask id="path-5-outside-3_18_13" maskUnits="userSpaceOnUse" x="2" y="8" width="133" height="38" fill="black">
<rect fill="white" x="2" y="8" width="133" height="38"/>
<path d="M11.3438 9.875V44H3.14062V9.875H11.3438ZM28.2188 44H20.6484L20.6953 37.6719H28.2188C29.7812 37.6719 31.1016 37.2969 32.1797 36.5469C33.2734 35.7969 34.1016 34.6797 34.6641 33.1953C35.2422 31.6953 35.5312 29.8516 35.5312 27.6641V26.1875C35.5312 24.5469 35.3672 23.1094 35.0391 21.875C34.7266 20.625 34.2578 19.5859 33.6328 18.7578C33.0078 17.9141 32.2266 17.2812 31.2891 16.8594C30.3672 16.4375 29.3047 16.2266 28.1016 16.2266H20.5078V9.875H28.1016C30.4141 9.875 32.5312 10.2734 34.4531 11.0703C36.3906 11.8516 38.0625 12.9766 39.4688 14.4453C40.8906 15.8984 41.9844 17.625 42.75 19.625C43.5312 21.6094 43.9219 23.8125 43.9219 26.2344V27.6641C43.9219 30.0703 43.5312 32.2734 42.75 34.2734C41.9844 36.2734 40.8984 38 39.4922 39.4531C38.0859 40.9062 36.4219 42.0312 34.5 42.8281C32.5938 43.6094 30.5 44 28.2188 44ZM25.3594 9.875V44H17.1328V9.875H25.3594ZM71.6953 37.6719V44H53.5078V37.6719H71.6953ZM56.4375 9.875V44H48.2109V9.875H56.4375ZM69.3516 23.4219V29.5391H53.5078V23.4219H69.3516ZM71.7656 9.875V16.2266H53.5078V9.875H71.7656ZM89.5312 17.0469L81.2109 44H72.375L84.9141 9.875H90.5156L89.5312 17.0469ZM96.4219 44L88.0781 17.0469L87 9.875H92.6719L105.281 44H96.4219ZM96.0938 31.2734V37.625H78.5859V31.2734H96.0938ZM125.367 34.9297C125.367 34.3984 125.289 33.9219 125.133 33.5C124.977 33.0625 124.688 32.6562 124.266 32.2812C123.844 31.9062 123.234 31.5312 122.438 31.1562C121.656 30.7656 120.625 30.3594 119.344 29.9375C117.844 29.4375 116.398 28.875 115.008 28.25C113.617 27.6094 112.375 26.8672 111.281 26.0234C110.188 25.1641 109.32 24.1641 108.68 23.0234C108.039 21.8672 107.719 20.5234 107.719 18.9922C107.719 17.5234 108.047 16.2031 108.703 15.0312C109.359 13.8437 110.273 12.8359 111.445 12.0078C112.633 11.1641 114.023 10.5234 115.617 10.0859C117.211 9.63281 118.953 9.40625 120.844 9.40625C123.344 9.40625 125.547 9.84375 127.453 10.7188C129.375 11.5781 130.875 12.8047 131.953 14.3984C133.047 15.9766 133.594 17.8438 133.594 20H125.414C125.414 19.1406 125.234 18.3828 124.875 17.7266C124.531 17.0703 124.008 16.5547 123.305 16.1797C122.602 15.8047 121.719 15.6172 120.656 15.6172C119.625 15.6172 118.758 15.7734 118.055 16.0859C117.352 16.3984 116.82 16.8203 116.461 17.3516C116.102 17.8672 115.922 18.4375 115.922 19.0625C115.922 19.5781 116.062 20.0469 116.344 20.4688C116.641 20.875 117.055 21.2578 117.586 21.6172C118.133 21.9766 118.789 22.3203 119.555 22.6484C120.336 22.9766 121.211 23.2969 122.18 23.6094C123.992 24.1875 125.602 24.8359 127.008 25.5547C128.43 26.2578 129.625 27.0625 130.594 27.9688C131.578 28.8594 132.32 29.875 132.82 31.0156C133.336 32.1562 133.594 33.4453 133.594 34.8828C133.594 36.4141 133.297 37.7734 132.703 38.9609C132.109 40.1484 131.258 41.1562 130.148 41.9844C129.039 42.7969 127.711 43.4141 126.164 43.8359C124.617 44.2578 122.891 44.4688 120.984 44.4688C119.234 44.4688 117.508 44.25 115.805 43.8125C114.117 43.3594 112.586 42.6719 111.211 41.75C109.836 40.8125 108.734 39.6172 107.906 38.1641C107.094 36.6953 106.688 34.9531 106.688 32.9375H114.938C114.938 33.9375 115.07 34.7812 115.336 35.4688C115.602 36.1562 115.992 36.7109 116.508 37.1328C117.023 37.5391 117.656 37.8359 118.406 38.0234C119.156 38.1953 120.016 38.2812 120.984 38.2812C122.031 38.2812 122.875 38.1328 123.516 37.8359C124.156 37.5234 124.625 37.1172 124.922 36.6172C125.219 36.1016 125.367 35.5391 125.367 34.9297Z"/>
</mask>
<path d="M11.3438 9.875V44H3.14062V9.875H11.3438ZM28.2188 44H20.6484L20.6953 37.6719H28.2188C29.7812 37.6719 31.1016 37.2969 32.1797 36.5469C33.2734 35.7969 34.1016 34.6797 34.6641 33.1953C35.2422 31.6953 35.5312 29.8516 35.5312 27.6641V26.1875C35.5312 24.5469 35.3672 23.1094 35.0391 21.875C34.7266 20.625 34.2578 19.5859 33.6328 18.7578C33.0078 17.9141 32.2266 17.2812 31.2891 16.8594C30.3672 16.4375 29.3047 16.2266 28.1016 16.2266H20.5078V9.875H28.1016C30.4141 9.875 32.5312 10.2734 34.4531 11.0703C36.3906 11.8516 38.0625 12.9766 39.4688 14.4453C40.8906 15.8984 41.9844 17.625 42.75 19.625C43.5312 21.6094 43.9219 23.8125 43.9219 26.2344V27.6641C43.9219 30.0703 43.5312 32.2734 42.75 34.2734C41.9844 36.2734 40.8984 38 39.4922 39.4531C38.0859 40.9062 36.4219 42.0312 34.5 42.8281C32.5938 43.6094 30.5 44 28.2188 44ZM25.3594 9.875V44H17.1328V9.875H25.3594ZM71.6953 37.6719V44H53.5078V37.6719H71.6953ZM56.4375 9.875V44H48.2109V9.875H56.4375ZM69.3516 23.4219V29.5391H53.5078V23.4219H69.3516ZM71.7656 9.875V16.2266H53.5078V9.875H71.7656ZM89.5312 17.0469L81.2109 44H72.375L84.9141 9.875H90.5156L89.5312 17.0469ZM96.4219 44L88.0781 17.0469L87 9.875H92.6719L105.281 44H96.4219ZM96.0938 31.2734V37.625H78.5859V31.2734H96.0938ZM125.367 34.9297C125.367 34.3984 125.289 33.9219 125.133 33.5C124.977 33.0625 124.688 32.6562 124.266 32.2812C123.844 31.9062 123.234 31.5312 122.438 31.1562C121.656 30.7656 120.625 30.3594 119.344 29.9375C117.844 29.4375 116.398 28.875 115.008 28.25C113.617 27.6094 112.375 26.8672 111.281 26.0234C110.188 25.1641 109.32 24.1641 108.68 23.0234C108.039 21.8672 107.719 20.5234 107.719 18.9922C107.719 17.5234 108.047 16.2031 108.703 15.0312C109.359 13.8437 110.273 12.8359 111.445 12.0078C112.633 11.1641 114.023 10.5234 115.617 10.0859C117.211 9.63281 118.953 9.40625 120.844 9.40625C123.344 9.40625 125.547 9.84375 127.453 10.7188C129.375 11.5781 130.875 12.8047 131.953 14.3984C133.047 15.9766 133.594 17.8438 133.594 20H125.414C125.414 19.1406 125.234 18.3828 124.875 17.7266C124.531 17.0703 124.008 16.5547 123.305 16.1797C122.602 15.8047 121.719 15.6172 120.656 15.6172C119.625 15.6172 118.758 15.7734 118.055 16.0859C117.352 16.3984 116.82 16.8203 116.461 17.3516C116.102 17.8672 115.922 18.4375 115.922 19.0625C115.922 19.5781 116.062 20.0469 116.344 20.4688C116.641 20.875 117.055 21.2578 117.586 21.6172C118.133 21.9766 118.789 22.3203 119.555 22.6484C120.336 22.9766 121.211 23.2969 122.18 23.6094C123.992 24.1875 125.602 24.8359 127.008 25.5547C128.43 26.2578 129.625 27.0625 130.594 27.9688C131.578 28.8594 132.32 29.875 132.82 31.0156C133.336 32.1562 133.594 33.4453 133.594 34.8828C133.594 36.4141 133.297 37.7734 132.703 38.9609C132.109 40.1484 131.258 41.1562 130.148 41.9844C129.039 42.7969 127.711 43.4141 126.164 43.8359C124.617 44.2578 122.891 44.4688 120.984 44.4688C119.234 44.4688 117.508 44.25 115.805 43.8125C114.117 43.3594 112.586 42.6719 111.211 41.75C109.836 40.8125 108.734 39.6172 107.906 38.1641C107.094 36.6953 106.688 34.9531 106.688 32.9375H114.938C114.938 33.9375 115.07 34.7812 115.336 35.4688C115.602 36.1562 115.992 36.7109 116.508 37.1328C117.023 37.5391 117.656 37.8359 118.406 38.0234C119.156 38.1953 120.016 38.2812 120.984 38.2812C122.031 38.2812 122.875 38.1328 123.516 37.8359C124.156 37.5234 124.625 37.1172 124.922 36.6172C125.219 36.1016 125.367 35.5391 125.367 34.9297Z" fill="black"/>
<path d="M11.3438 9.875H12.3438V8.875H11.3438V9.875ZM11.3438 44V45H12.3438V44H11.3438ZM3.14062 44H2.14062V45H3.14062V44ZM3.14062 9.875V8.875H2.14062V9.875H3.14062ZM11.3438 9.875H10.3438V44H11.3438H12.3438V9.875H11.3438ZM11.3438 44V43H3.14062V44V45H11.3438V44ZM3.14062 44H4.14062V9.875H3.14062H2.14062V44H3.14062ZM3.14062 9.875V10.875H11.3438V9.875V8.875H3.14062V9.875ZM20.6484 44L19.6485 43.9926L19.641 45H20.6484V44ZM20.6953 37.6719V36.6719H19.7027L19.6953 37.6645L20.6953 37.6719ZM32.1797 36.5469L31.6141 35.7221L31.6086 35.726L32.1797 36.5469ZM34.6641 33.1953L33.731 32.8357L33.729 32.841L34.6641 33.1953ZM35.0391 21.875L34.0689 22.1175L34.0707 22.1247L34.0726 22.1319L35.0391 21.875ZM33.6328 18.7578L32.8292 19.3531L32.8346 19.3602L33.6328 18.7578ZM31.2891 16.8594L30.8729 17.7687L30.8787 17.7713L31.2891 16.8594ZM20.5078 16.2266H19.5078V17.2266H20.5078V16.2266ZM20.5078 9.875V8.875H19.5078V9.875H20.5078ZM34.4531 11.0703L34.0701 11.9941L34.0792 11.9978L34.4531 11.0703ZM39.4688 14.4453L38.7464 15.1369L38.754 15.1447L39.4688 14.4453ZM42.75 19.625L41.816 19.9825L41.8195 19.9913L42.75 19.625ZM42.75 34.2734L41.8185 33.9096L41.8161 33.9159L42.75 34.2734ZM34.5 42.8281L34.8792 43.7534L34.883 43.7519L34.5 42.8281ZM25.3594 9.875H26.3594V8.875H25.3594V9.875ZM25.3594 44V45H26.3594V44H25.3594ZM17.1328 44H16.1328V45H17.1328V44ZM17.1328 9.875V8.875H16.1328V9.875H17.1328ZM28.2188 44V43H20.6484V44V45H28.2188V44ZM20.6484 44L21.6484 44.0074L21.6953 37.6793L20.6953 37.6719L19.6953 37.6645L19.6485 43.9926L20.6484 44ZM20.6953 37.6719V38.6719H28.2188V37.6719V36.6719H20.6953V37.6719ZM28.2188 37.6719V38.6719C29.9458 38.6719 31.4752 38.2551 32.7508 37.3678L32.1797 36.5469L31.6086 35.726C30.7279 36.3386 29.6167 36.6719 28.2188 36.6719V37.6719ZM32.1797 36.5469L32.7452 37.3716C34.0382 36.485 34.9789 35.1865 35.5992 33.5497L34.6641 33.1953L33.729 32.841C33.2242 34.1728 32.5087 35.1088 31.6142 35.7221L32.1797 36.5469ZM34.6641 33.1953L35.5972 33.5549C36.2323 31.907 36.5312 29.933 36.5312 27.6641H35.5312H34.5312C34.5312 29.7701 34.2521 31.4836 33.731 32.8357L34.6641 33.1953ZM35.5312 27.6641H36.5312V26.1875H35.5312H34.5312V27.6641H35.5312ZM35.5312 26.1875H36.5312C36.5312 24.4834 36.3612 22.9561 36.0055 21.6181L35.0391 21.875L34.0726 22.1319C34.3732 23.2626 34.5312 24.6104 34.5312 26.1875H35.5312ZM35.0391 21.875L36.0092 21.6325C35.6718 20.2827 35.1539 19.1133 34.431 18.1554L33.6328 18.7578L32.8346 19.3602C33.3617 20.0586 33.7814 20.9673 34.0689 22.1175L35.0391 21.875ZM33.6328 18.7578L34.4364 18.1626C33.7118 17.1844 32.7964 16.4411 31.6994 15.9475L31.2891 16.8594L30.8787 17.7713C31.6568 18.1214 32.3038 18.6437 32.8293 19.353L33.6328 18.7578ZM31.2891 16.8594L31.7052 15.9501C30.6306 15.4583 29.4218 15.2266 28.1016 15.2266V16.2266V17.2266C29.1876 17.2266 30.1038 17.4167 30.8729 17.7687L31.2891 16.8594ZM28.1016 16.2266V15.2266H20.5078V16.2266V17.2266H28.1016V16.2266ZM20.5078 16.2266H21.5078V9.875H20.5078H19.5078V16.2266H20.5078ZM20.5078 9.875V10.875H28.1016V9.875V8.875H20.5078V9.875ZM28.1016 9.875V10.875C30.2973 10.875 32.2825 11.2529 34.0701 11.9941L34.4531 11.0703L34.8361 10.1466C32.78 9.29402 30.5308 8.875 28.1016 8.875V9.875ZM34.4531 11.0703L34.0792 11.9978C35.8888 12.7275 37.441 13.7734 38.7464 15.1369L39.4688 14.4453L40.1911 13.7537C38.684 12.1797 36.8924 10.9757 34.8271 10.1429L34.4531 11.0703ZM39.4688 14.4453L38.754 15.1447C40.0751 16.4949 41.0967 18.1033 41.8161 19.9825L42.75 19.625L43.6839 19.2675C42.872 17.1467 41.7061 15.302 40.1835 13.7459L39.4688 14.4453ZM42.75 19.625L41.8195 19.9913C42.549 21.8443 42.9219 23.921 42.9219 26.2344H43.9219H44.9219C44.9219 23.704 44.5135 21.3744 43.6805 19.2587L42.75 19.625ZM43.9219 26.2344H42.9219V27.6641H43.9219H44.9219V26.2344H43.9219ZM43.9219 27.6641H42.9219C42.9219 29.9608 42.5494 32.0387 41.8185 33.9096L42.75 34.2734L43.6815 34.6373C44.5131 32.5082 44.9219 30.1798 44.9219 27.6641H43.9219ZM42.75 34.2734L41.8161 33.9159C41.0958 35.7975 40.0805 37.4072 38.7736 38.7577L39.4922 39.4531L40.2108 40.1485C41.7163 38.5928 42.8729 36.7494 43.6839 34.6309L42.75 34.2734ZM39.4922 39.4531L38.7736 38.7577C37.4652 40.1097 35.9163 41.1583 34.117 41.9044L34.5 42.8281L34.883 43.7519C36.9274 42.9042 38.7067 41.7028 40.2108 40.1485L39.4922 39.4531ZM34.5 42.8281L34.1208 41.9028C32.3472 42.6297 30.3839 43 28.2188 43V44V45C30.6161 45 32.8403 44.589 34.8792 43.7534L34.5 42.8281ZM25.3594 9.875H24.3594V44H25.3594H26.3594V9.875H25.3594ZM25.3594 44V43H17.1328V44V45H25.3594V44ZM17.1328 44H18.1328V9.875H17.1328H16.1328V44H17.1328ZM17.1328 9.875V10.875H25.3594V9.875V8.875H17.1328V9.875ZM71.6953 37.6719H72.6953V36.6719H71.6953V37.6719ZM71.6953 44V45H72.6953V44H71.6953ZM53.5078 44H52.5078V45H53.5078V44ZM53.5078 37.6719V36.6719H52.5078V37.6719H53.5078ZM56.4375 9.875H57.4375V8.875H56.4375V9.875ZM56.4375 44V45H57.4375V44H56.4375ZM48.2109 44H47.2109V45H48.2109V44ZM48.2109 9.875V8.875H47.2109V9.875H48.2109ZM69.3516 23.4219H70.3516V22.4219H69.3516V23.4219ZM69.3516 29.5391V30.5391H70.3516V29.5391H69.3516ZM53.5078 29.5391H52.5078V30.5391H53.5078V29.5391ZM53.5078 23.4219V22.4219H52.5078V23.4219H53.5078ZM71.7656 9.875H72.7656V8.875H71.7656V9.875ZM71.7656 16.2266V17.2266H72.7656V16.2266H71.7656ZM53.5078 16.2266H52.5078V17.2266H53.5078V16.2266ZM53.5078 9.875V8.875H52.5078V9.875H53.5078ZM71.6953 37.6719H70.6953V44H71.6953H72.6953V37.6719H71.6953ZM71.6953 44V43H53.5078V44V45H71.6953V44ZM53.5078 44H54.5078V37.6719H53.5078H52.5078V44H53.5078ZM53.5078 37.6719V38.6719H71.6953V37.6719V36.6719H53.5078V37.6719ZM56.4375 9.875H55.4375V44H56.4375H57.4375V9.875H56.4375ZM56.4375 44V43H48.2109V44V45H56.4375V44ZM48.2109 44H49.2109V9.875H48.2109H47.2109V44H48.2109ZM48.2109 9.875V10.875H56.4375V9.875V8.875H48.2109V9.875ZM69.3516 23.4219H68.3516V29.5391H69.3516H70.3516V23.4219H69.3516ZM69.3516 29.5391V28.5391H53.5078V29.5391V30.5391H69.3516V29.5391ZM53.5078 29.5391H54.5078V23.4219H53.5078H52.5078V29.5391H53.5078ZM53.5078 23.4219V24.4219H69.3516V23.4219V22.4219H53.5078V23.4219ZM71.7656 9.875H70.7656V16.2266H71.7656H72.7656V9.875H71.7656ZM71.7656 16.2266V15.2266H53.5078V16.2266V17.2266H71.7656V16.2266ZM53.5078 16.2266H54.5078V9.875H53.5078H52.5078V16.2266H53.5078ZM53.5078 9.875V10.875H71.7656V9.875V8.875H53.5078V9.875ZM89.5312 17.0469L90.4868 17.3418L90.5109 17.2638L90.522 17.1829L89.5312 17.0469ZM81.2109 44V45H81.9488L82.1664 44.295L81.2109 44ZM72.375 44L71.4364 43.6551L70.9422 45H72.375V44ZM84.9141 9.875V8.875H84.2161L83.9754 9.5301L84.9141 9.875ZM90.5156 9.875L91.5063 10.011L91.6623 8.875H90.5156V9.875ZM96.4219 44L95.4666 44.2957L95.6846 45H96.4219V44ZM88.0781 17.0469L87.0892 17.1955L87.1005 17.2703L87.1229 17.3426L88.0781 17.0469ZM87 9.875V8.875H85.8384L86.0111 10.0237L87 9.875ZM92.6719 9.875L93.6099 9.5284L93.3685 8.875H92.6719V9.875ZM105.281 44V45H106.717L106.219 43.6534L105.281 44ZM96.0938 31.2734H97.0938V30.2734H96.0938V31.2734ZM96.0938 37.625V38.625H97.0938V37.625H96.0938ZM78.5859 37.625H77.5859V38.625H78.5859V37.625ZM78.5859 31.2734V30.2734H77.5859V31.2734H78.5859ZM89.5312 17.0469L88.5757 16.7519L80.2554 43.705L81.2109 44L82.1664 44.295L90.4868 17.3418L89.5312 17.0469ZM81.2109 44V43H72.375V44V45H81.2109V44ZM72.375 44L73.3136 44.3449L85.8527 10.2199L84.9141 9.875L83.9754 9.5301L71.4364 43.6551L72.375 44ZM84.9141 9.875V10.875H90.5156V9.875V8.875H84.9141V9.875ZM90.5156 9.875L89.5249 9.73902L88.5405 16.9109L89.5312 17.0469L90.522 17.1829L91.5063 10.011L90.5156 9.875ZM96.4219 44L97.3771 43.7043L89.0334 16.7512L88.0781 17.0469L87.1229 17.3426L95.4666 44.2957L96.4219 44ZM88.0781 17.0469L89.067 16.8982L87.9889 9.72634L87 9.875L86.0111 10.0237L87.0892 17.1955L88.0781 17.0469ZM87 9.875V10.875H92.6719V9.875V8.875H87V9.875ZM92.6719 9.875L91.7339 10.2216L104.343 44.3466L105.281 44L106.219 43.6534L93.6099 9.5284L92.6719 9.875ZM105.281 44V43H96.4219V44V45H105.281V44ZM96.0938 31.2734H95.0938V37.625H96.0938H97.0938V31.2734H96.0938ZM96.0938 37.625V36.625H78.5859V37.625V38.625H96.0938V37.625ZM78.5859 37.625H79.5859V31.2734H78.5859H77.5859V37.625H78.5859ZM78.5859 31.2734V32.2734H96.0938V31.2734V30.2734H78.5859V31.2734ZM125.133 33.5L124.191 33.8364L124.195 33.8473L125.133 33.5ZM122.438 31.1562L121.99 32.0507L122.001 32.056L122.012 32.0611L122.438 31.1562ZM119.344 29.9375L119.028 30.8862L119.031 30.8873L119.344 29.9375ZM115.008 28.25L114.589 29.1583L114.598 29.1621L115.008 28.25ZM111.281 26.0234L110.663 26.8098L110.67 26.8152L111.281 26.0234ZM108.68 23.0234L107.805 23.5081L107.808 23.5131L108.68 23.0234ZM108.703 15.0312L109.576 15.5199L109.578 15.5149L108.703 15.0312ZM111.445 12.0078L112.022 12.8245L112.025 12.823L111.445 12.0078ZM115.617 10.0859L115.882 11.0503L115.891 11.0478L115.617 10.0859ZM127.453 10.7188L127.036 11.6276L127.045 11.6316L127.453 10.7188ZM131.953 14.3984L131.125 14.9588L131.131 14.9681L131.953 14.3984ZM133.594 20V21H134.594V20H133.594ZM125.414 20H124.414V21H125.414V20ZM124.875 17.7266L123.989 18.1906L123.993 18.1988L123.998 18.2069L124.875 17.7266ZM116.461 17.3516L117.281 17.9234L117.289 17.9119L116.461 17.3516ZM116.344 20.4688L115.512 21.0235L115.524 21.0414L115.536 21.0588L116.344 20.4688ZM117.586 21.6172L117.026 22.4455L117.037 22.4529L117.586 21.6172ZM119.555 22.6484L119.161 23.5676L119.167 23.5704L119.555 22.6484ZM122.18 23.6094L121.873 24.5611L121.876 24.5621L122.18 23.6094ZM127.008 25.5547L126.553 26.4452L126.565 26.4511L127.008 25.5547ZM130.594 27.9688L129.911 28.699L129.917 28.7047L129.923 28.7103L130.594 27.9688ZM132.82 31.0156L131.904 31.4171L131.909 31.4275L132.82 31.0156ZM130.148 41.9844L130.739 42.7912L130.747 42.7857L130.148 41.9844ZM115.805 43.8125L115.545 44.7783L115.556 44.7811L115.805 43.8125ZM111.211 41.75L110.648 42.5763L110.654 42.5806L111.211 41.75ZM107.906 38.1641L107.031 38.6482L107.037 38.6592L107.906 38.1641ZM106.688 32.9375V31.9375H105.688V32.9375H106.688ZM114.938 32.9375H115.938V31.9375H114.938V32.9375ZM116.508 37.1328L115.875 37.9068L115.882 37.9126L115.889 37.9183L116.508 37.1328ZM118.406 38.0234L118.164 38.9936L118.173 38.996L118.183 38.9982L118.406 38.0234ZM123.516 37.8359L123.936 38.7432L123.945 38.7391L123.954 38.7347L123.516 37.8359ZM124.922 36.6172L125.782 37.1278L125.788 37.1162L124.922 36.6172ZM125.367 34.9297H126.367C126.367 34.3009 126.275 33.7038 126.071 33.1527L125.133 33.5L124.195 33.8473C124.303 34.1399 124.367 34.496 124.367 34.9297H125.367ZM125.133 33.5L126.075 33.1637C125.851 32.5374 125.451 31.9966 124.93 31.5338L124.266 32.2812L123.601 33.0287C123.924 33.3159 124.102 33.5876 124.191 33.8363L125.133 33.5ZM124.266 32.2812L124.93 31.5338C124.408 31.07 123.704 30.6471 122.863 30.2514L122.438 31.1562L122.012 32.0611C122.765 32.4154 123.279 32.7425 123.601 33.0287L124.266 32.2812ZM122.438 31.1562L122.885 30.2618C122.043 29.8412 120.962 29.4175 119.657 28.9877L119.344 29.9375L119.031 30.8873C120.288 31.3012 121.269 31.6901 121.99 32.0507L122.438 31.1562ZM119.344 29.9375L119.66 28.9888C118.191 28.499 116.777 27.9486 115.418 27.3379L115.008 28.25L114.598 29.1621C116.02 29.8014 117.497 30.376 119.028 30.8862L119.344 29.9375ZM115.008 28.25L115.426 27.3417C114.097 26.7292 112.92 26.0248 111.892 25.2317L111.281 26.0234L110.67 26.8152C111.83 27.7096 113.138 28.4895 114.589 29.1583L115.008 28.25ZM111.281 26.0234L111.899 25.2371C110.902 24.4538 110.124 23.5526 109.552 22.5337L108.68 23.0234L107.808 23.5131C108.517 24.7755 109.473 25.8744 110.663 26.8098L111.281 26.0234ZM108.68 23.0234L109.554 22.5388C109.008 21.5529 108.719 20.381 108.719 18.9922H107.719H106.719C106.719 20.6659 107.07 22.1815 107.805 23.5081L108.68 23.0234ZM107.719 18.9922H108.719C108.719 17.6781 109.011 16.5287 109.576 15.5199L108.703 15.0312L107.831 14.5426C107.083 15.8775 106.719 17.3688 106.719 18.9922H107.719ZM108.703 15.0312L109.578 15.5149C110.157 14.4671 110.967 13.5707 112.022 12.8245L111.445 12.0078L110.868 11.1911C109.58 12.1012 108.561 13.2204 107.828 14.5476L108.703 15.0312ZM111.445 12.0078L112.025 12.823C113.105 12.0554 114.386 11.4609 115.882 11.0503L115.617 10.0859L115.352 9.12161C113.661 9.58594 112.161 10.2727 110.866 11.1926L111.445 12.0078ZM115.617 10.0859L115.891 11.0478C117.384 10.6233 119.033 10.4062 120.844 10.4062V9.40625V8.40625C118.873 8.40625 117.038 8.64237 115.344 9.12406L115.617 10.0859ZM120.844 9.40625V10.4062C123.227 10.4062 125.283 10.8231 127.036 11.6276L127.453 10.7188L127.87 9.80992C125.81 8.86443 123.46 8.40625 120.844 8.40625V9.40625ZM127.453 10.7188L127.045 11.6316C128.813 12.4223 130.161 13.5338 131.125 14.9587L131.953 14.3984L132.781 13.8381C131.589 12.0756 129.937 10.7339 127.861 9.80586L127.453 10.7188ZM131.953 14.3984L131.131 14.9681C132.095 16.3587 132.594 18.0213 132.594 20H133.594H134.594C134.594 17.6662 133.999 15.5944 132.775 13.8288L131.953 14.3984ZM133.594 20V19H125.414V20V21H133.594V20ZM125.414 20H126.414C126.414 18.9979 126.203 18.0704 125.752 17.2462L124.875 17.7266L123.998 18.2069C124.265 18.6953 124.414 19.2833 124.414 20H125.414ZM124.875 17.7266L125.761 17.2626C125.317 16.4147 124.642 15.7594 123.775 15.2973L123.305 16.1797L122.834 17.062C123.374 17.35 123.746 17.726 123.989 18.1906L124.875 17.7266ZM123.305 16.1797L123.775 15.2973C122.887 14.8237 121.83 14.6172 120.656 14.6172V15.6172V16.6172C121.607 16.6172 122.316 16.7857 122.834 17.062L123.305 16.1797ZM120.656 15.6172V14.6172C119.53 14.6172 118.515 14.787 117.649 15.1721L118.055 16.0859L118.461 16.9997C119 16.7599 119.72 16.6172 120.656 16.6172V15.6172ZM118.055 16.0859L117.649 15.1721C116.809 15.5453 116.116 16.0765 115.633 16.7913L116.461 17.3516L117.289 17.9119C117.524 17.5641 117.894 17.2515 118.461 16.9997L118.055 16.0859ZM116.461 17.3516L115.641 16.7798C115.165 17.4621 114.922 18.2318 114.922 19.0625H115.922H116.922C116.922 18.6432 117.038 18.2722 117.281 17.9234L116.461 17.3516ZM115.922 19.0625H114.922C114.922 19.772 115.119 20.4344 115.512 21.0235L116.344 20.4688L117.176 19.914C117.006 19.6594 116.922 19.3843 116.922 19.0625H115.922ZM116.344 20.4688L115.536 21.0588C115.917 21.5797 116.424 22.0384 117.026 22.4455L117.586 21.6172L118.146 20.7889C117.685 20.4772 117.364 20.1703 117.151 19.8787L116.344 20.4688ZM117.586 21.6172L117.037 22.4529C117.644 22.8519 118.355 23.2222 119.161 23.5676L119.555 22.6484L119.949 21.7293C119.223 21.4184 118.622 21.1012 118.135 20.7815L117.586 21.6172ZM119.555 22.6484L119.167 23.5704C119.98 23.9115 120.882 24.2415 121.873 24.5611L122.18 23.6094L122.487 22.6577C121.54 22.3522 120.692 22.0416 119.942 21.7265L119.555 22.6484ZM122.18 23.6094L121.876 24.5621C123.646 25.1269 125.204 25.7556 126.553 26.4451L127.008 25.5547L127.463 24.6643C125.999 23.9162 124.338 23.2481 122.484 22.6567L122.18 23.6094ZM127.008 25.5547L126.565 26.4511C127.915 27.1191 129.026 27.8711 129.911 28.699L130.594 27.9688L131.277 27.2385C130.224 26.2539 128.944 25.3966 127.451 24.6583L127.008 25.5547ZM130.594 27.9688L129.923 28.7103C130.809 29.5125 131.465 30.4143 131.904 31.4171L132.82 31.0156L133.736 30.6141C133.176 29.3357 132.347 28.2063 131.265 27.2272L130.594 27.9688ZM132.82 31.0156L131.909 31.4275C132.358 32.4209 132.594 33.5664 132.594 34.8828H133.594H134.594C134.594 33.3243 134.314 31.8916 133.732 30.6037L132.82 31.0156ZM133.594 34.8828H132.594C132.594 36.2827 132.323 37.4849 131.809 38.5137L132.703 38.9609L133.598 39.4082C134.271 38.0619 134.594 36.5455 134.594 34.8828H133.594ZM132.703 38.9609L131.809 38.5137C131.288 39.5557 130.54 40.4441 129.55 41.183L130.148 41.9844L130.747 42.7857C131.976 41.8684 132.931 40.7412 133.598 39.4082L132.703 38.9609ZM130.148 41.9844L129.558 41.1776C128.562 41.9069 127.349 42.4762 125.901 42.8712L126.164 43.8359L126.427 44.8007C128.073 44.3519 129.516 43.6868 130.739 42.7911L130.148 41.9844ZM126.164 43.8359L125.901 42.8712C124.454 43.2657 122.818 43.4688 120.984 43.4688V44.4688V45.4688C122.963 45.4688 124.78 45.2499 126.427 44.8007L126.164 43.8359ZM120.984 44.4688V43.4688C119.319 43.4688 117.676 43.2607 116.053 42.8439L115.805 43.8125L115.556 44.7811C117.34 45.2393 119.15 45.4688 120.984 45.4688V44.4688ZM115.805 43.8125L116.064 42.8467C114.477 42.4204 113.047 41.7769 111.768 40.9194L111.211 41.75L110.654 42.5806C112.125 43.5669 113.758 44.2983 115.545 44.7783L115.805 43.8125ZM111.211 41.75L111.774 40.9238C110.526 40.0724 109.528 38.9906 108.775 37.6689L107.906 38.1641L107.037 38.6592C107.94 40.2438 109.146 41.5526 110.648 42.5762L111.211 41.75ZM107.906 38.1641L108.781 37.68C108.066 36.3865 107.688 34.8177 107.688 32.9375H106.688H105.688C105.688 35.0885 106.122 37.0041 107.031 38.6481L107.906 38.1641ZM106.688 32.9375V33.9375H114.938V32.9375V31.9375H106.688V32.9375ZM114.938 32.9375H113.938C113.938 34.0196 114.08 34.9937 114.403 35.8291L115.336 35.4688L116.269 35.1084C116.06 34.5688 115.938 33.8554 115.938 32.9375H114.938ZM115.336 35.4688L114.403 35.8291C114.724 36.6605 115.211 37.3639 115.875 37.9068L116.508 37.1328L117.141 36.3589C116.773 36.0579 116.479 35.652 116.269 35.1084L115.336 35.4688ZM116.508 37.1328L115.889 37.9183C116.534 38.4262 117.301 38.7778 118.164 38.9936L118.406 38.0234L118.649 37.0533C118.012 36.894 117.513 36.652 117.127 36.3473L116.508 37.1328ZM118.406 38.0234L118.183 38.9982C119.022 39.1905 119.959 39.2812 120.984 39.2812V38.2812V37.2812C120.072 37.2812 119.29 37.2001 118.63 37.0487L118.406 38.0234ZM120.984 38.2812V39.2812C122.112 39.2812 123.116 39.1234 123.936 38.7432L123.516 37.8359L123.095 36.9286C122.634 37.1422 121.95 37.2812 120.984 37.2812V38.2812ZM123.516 37.8359L123.954 38.7347C124.73 38.3561 125.365 37.8299 125.782 37.1277L124.922 36.6172L124.062 36.1066C123.885 36.4045 123.582 36.6908 123.077 36.9372L123.516 37.8359ZM124.922 36.6172L125.788 37.1162C126.175 36.445 126.367 35.7098 126.367 34.9297H125.367H124.367C124.367 35.3684 124.263 35.7582 124.055 36.1182L124.922 36.6172Z" fill="black" mask="url(#path-5-outside-3_18_13)"/>
<path d="M362 11.5L343.5 32.5L338 28.5L355.5 9H338L345 0.5H370V21.5L362 30V11.5Z" fill="#FFB300" stroke="black"/>
<mask id="path-8-outside-4_18_13" maskUnits="userSpaceOnUse" x="333" y="8" width="30" height="38" fill="black">
<rect fill="white" x="333" y="8" width="30" height="38"/>
<path d="M353.18 34.9297C353.18 34.3984 353.102 33.9219 352.945 33.5C352.789 33.0625 352.5 32.6562 352.078 32.2812C351.656 31.9062 351.047 31.5312 350.25 31.1562C349.469 30.7656 348.438 30.3594 347.156 29.9375C345.656 29.4375 344.211 28.875 342.82 28.25C341.43 27.6094 340.188 26.8672 339.094 26.0234C338 25.1641 337.133 24.1641 336.492 23.0234C335.852 21.8672 335.531 20.5234 335.531 18.9922C335.531 17.5234 335.859 16.2031 336.516 15.0312C337.172 13.8437 338.086 12.8359 339.258 12.0078C340.445 11.1641 341.836 10.5234 343.43 10.0859C345.023 9.63281 346.766 9.40625 348.656 9.40625C351.156 9.40625 353.359 9.84375 355.266 10.7188C357.188 11.5781 358.688 12.8047 359.766 14.3984C360.859 15.9766 361.406 17.8438 361.406 20H353.227C353.227 19.1406 353.047 18.3828 352.688 17.7266C352.344 17.0703 351.82 16.5547 351.117 16.1797C350.414 15.8047 349.531 15.6172 348.469 15.6172C347.438 15.6172 346.57 15.7734 345.867 16.0859C345.164 16.3984 344.633 16.8203 344.273 17.3516C343.914 17.8672 343.734 18.4375 343.734 19.0625C343.734 19.5781 343.875 20.0469 344.156 20.4688C344.453 20.875 344.867 21.2578 345.398 21.6172C345.945 21.9766 346.602 22.3203 347.367 22.6484C348.148 22.9766 349.023 23.2969 349.992 23.6094C351.805 24.1875 353.414 24.8359 354.82 25.5547C356.242 26.2578 357.438 27.0625 358.406 27.9688C359.391 28.8594 360.133 29.875 360.633 31.0156C361.148 32.1562 361.406 33.4453 361.406 34.8828C361.406 36.4141 361.109 37.7734 360.516 38.9609C359.922 40.1484 359.07 41.1562 357.961 41.9844C356.852 42.7969 355.523 43.4141 353.977 43.8359C352.43 44.2578 350.703 44.4688 348.797 44.4688C347.047 44.4688 345.32 44.25 343.617 43.8125C341.93 43.3594 340.398 42.6719 339.023 41.75C337.648 40.8125 336.547 39.6172 335.719 38.1641C334.906 36.6953 334.5 34.9531 334.5 32.9375H342.75C342.75 33.9375 342.883 34.7812 343.148 35.4688C343.414 36.1562 343.805 36.7109 344.32 37.1328C344.836 37.5391 345.469 37.8359 346.219 38.0234C346.969 38.1953 347.828 38.2812 348.797 38.2812C349.844 38.2812 350.688 38.1328 351.328 37.8359C351.969 37.5234 352.438 37.1172 352.734 36.6172C353.031 36.1016 353.18 35.5391 353.18 34.9297Z"/>
</mask>
<path d="M353.18 34.9297C353.18 34.3984 353.102 33.9219 352.945 33.5C352.789 33.0625 352.5 32.6562 352.078 32.2812C351.656 31.9062 351.047 31.5312 350.25 31.1562C349.469 30.7656 348.438 30.3594 347.156 29.9375C345.656 29.4375 344.211 28.875 342.82 28.25C341.43 27.6094 340.188 26.8672 339.094 26.0234C338 25.1641 337.133 24.1641 336.492 23.0234C335.852 21.8672 335.531 20.5234 335.531 18.9922C335.531 17.5234 335.859 16.2031 336.516 15.0312C337.172 13.8437 338.086 12.8359 339.258 12.0078C340.445 11.1641 341.836 10.5234 343.43 10.0859C345.023 9.63281 346.766 9.40625 348.656 9.40625C351.156 9.40625 353.359 9.84375 355.266 10.7188C357.188 11.5781 358.688 12.8047 359.766 14.3984C360.859 15.9766 361.406 17.8438 361.406 20H353.227C353.227 19.1406 353.047 18.3828 352.688 17.7266C352.344 17.0703 351.82 16.5547 351.117 16.1797C350.414 15.8047 349.531 15.6172 348.469 15.6172C347.438 15.6172 346.57 15.7734 345.867 16.0859C345.164 16.3984 344.633 16.8203 344.273 17.3516C343.914 17.8672 343.734 18.4375 343.734 19.0625C343.734 19.5781 343.875 20.0469 344.156 20.4688C344.453 20.875 344.867 21.2578 345.398 21.6172C345.945 21.9766 346.602 22.3203 347.367 22.6484C348.148 22.9766 349.023 23.2969 349.992 23.6094C351.805 24.1875 353.414 24.8359 354.82 25.5547C356.242 26.2578 357.438 27.0625 358.406 27.9688C359.391 28.8594 360.133 29.875 360.633 31.0156C361.148 32.1562 361.406 33.4453 361.406 34.8828C361.406 36.4141 361.109 37.7734 360.516 38.9609C359.922 40.1484 359.07 41.1562 357.961 41.9844C356.852 42.7969 355.523 43.4141 353.977 43.8359C352.43 44.2578 350.703 44.4688 348.797 44.4688C347.047 44.4688 345.32 44.25 343.617 43.8125C341.93 43.3594 340.398 42.6719 339.023 41.75C337.648 40.8125 336.547 39.6172 335.719 38.1641C334.906 36.6953 334.5 34.9531 334.5 32.9375H342.75C342.75 33.9375 342.883 34.7812 343.148 35.4688C343.414 36.1562 343.805 36.7109 344.32 37.1328C344.836 37.5391 345.469 37.8359 346.219 38.0234C346.969 38.1953 347.828 38.2812 348.797 38.2812C349.844 38.2812 350.688 38.1328 351.328 37.8359C351.969 37.5234 352.438 37.1172 352.734 36.6172C353.031 36.1016 353.18 35.5391 353.18 34.9297Z" fill="black"/>
<path d="M352.945 33.5L352.004 33.8364L352.008 33.8473L352.945 33.5ZM350.25 31.1562L349.803 32.0507L349.813 32.056L349.824 32.0611L350.25 31.1562ZM347.156 29.9375L346.84 30.8862L346.843 30.8873L347.156 29.9375ZM342.82 28.25L342.402 29.1583L342.41 29.1621L342.82 28.25ZM339.094 26.0234L338.476 26.8098L338.483 26.8152L339.094 26.0234ZM336.492 23.0234L335.617 23.5081L335.62 23.5131L336.492 23.0234ZM336.516 15.0312L337.388 15.5199L337.391 15.5149L336.516 15.0312ZM339.258 12.0078L339.835 12.8245L339.837 12.823L339.258 12.0078ZM343.43 10.0859L343.694 11.0503L343.703 11.0478L343.43 10.0859ZM355.266 10.7188L354.848 11.6276L354.857 11.6316L355.266 10.7188ZM359.766 14.3984L358.937 14.9588L358.944 14.9681L359.766 14.3984ZM361.406 20V21H362.406V20H361.406ZM353.227 20H352.227V21H353.227V20ZM352.688 17.7266L351.802 18.1906L351.806 18.1988L351.81 18.2069L352.688 17.7266ZM344.273 17.3516L345.094 17.9234L345.102 17.9119L344.273 17.3516ZM344.156 20.4688L343.324 21.0235L343.336 21.0414L343.349 21.0588L344.156 20.4688ZM345.398 21.6172L344.838 22.4455L344.849 22.4529L345.398 21.6172ZM347.367 22.6484L346.973 23.5676L346.98 23.5704L347.367 22.6484ZM349.992 23.6094L349.685 24.5611L349.688 24.5621L349.992 23.6094ZM354.82 25.5547L354.365 26.4452L354.377 26.4511L354.82 25.5547ZM358.406 27.9688L357.723 28.699L357.729 28.7047L357.735 28.7103L358.406 27.9688ZM360.633 31.0156L359.717 31.4171L359.722 31.4275L360.633 31.0156ZM357.961 41.9844L358.552 42.7912L358.559 42.7857L357.961 41.9844ZM343.617 43.8125L343.358 44.7783L343.368 44.7811L343.617 43.8125ZM339.023 41.75L338.46 42.5763L338.467 42.5806L339.023 41.75ZM335.719 38.1641L334.844 38.6482L334.85 38.6592L335.719 38.1641ZM334.5 32.9375V31.9375H333.5V32.9375H334.5ZM342.75 32.9375H343.75V31.9375H342.75V32.9375ZM344.32 37.1328L343.687 37.9068L343.694 37.9126L343.701 37.9183L344.32 37.1328ZM346.219 38.0234L345.976 38.9936L345.986 38.996L345.995 38.9982L346.219 38.0234ZM351.328 37.8359L351.749 38.7432L351.758 38.7391L351.767 38.7347L351.328 37.8359ZM352.734 36.6172L353.594 37.1278L353.601 37.1162L352.734 36.6172ZM353.18 34.9297H354.18C354.18 34.3009 354.087 33.7038 353.883 33.1527L352.945 33.5L352.008 33.8473C352.116 34.1399 352.18 34.496 352.18 34.9297H353.18ZM352.945 33.5L353.887 33.1637C353.663 32.5374 353.263 31.9966 352.742 31.5338L352.078 32.2812L351.414 33.0287C351.737 33.3159 351.915 33.5876 352.004 33.8363L352.945 33.5ZM352.078 32.2812L352.742 31.5338C352.221 31.07 351.517 30.6471 350.676 30.2514L350.25 31.1562L349.824 32.0611C350.577 32.4154 351.092 32.7425 351.414 33.0287L352.078 32.2812ZM350.25 31.1562L350.697 30.2618C349.856 29.8412 348.774 29.4175 347.469 28.9877L347.156 29.9375L346.843 30.8873C348.101 31.3012 349.082 31.6901 349.803 32.0507L350.25 31.1562ZM347.156 29.9375L347.472 28.9888C346.003 28.499 344.589 27.9486 343.23 27.3379L342.82 28.25L342.41 29.1621C343.833 29.8014 345.309 30.376 346.84 30.8862L347.156 29.9375ZM342.82 28.25L343.239 27.3417C341.909 26.7292 340.733 26.0248 339.705 25.2317L339.094 26.0234L338.483 26.8152C339.642 27.7096 340.95 28.4895 342.402 29.1583L342.82 28.25ZM339.094 26.0234L339.712 25.2371C338.715 24.4538 337.936 23.5526 337.364 22.5337L336.492 23.0234L335.62 23.5131C336.329 24.7755 337.285 25.8744 338.476 26.8098L339.094 26.0234ZM336.492 23.0234L337.367 22.5388C336.821 21.5529 336.531 20.381 336.531 18.9922H335.531H334.531C334.531 20.6659 334.882 22.1815 335.617 23.5081L336.492 23.0234ZM335.531 18.9922H336.531C336.531 17.6781 336.823 16.5287 337.388 15.5199L336.516 15.0312L335.643 14.5426C334.896 15.8775 334.531 17.3688 334.531 18.9922H335.531ZM336.516 15.0312L337.391 15.5149C337.97 14.4671 338.779 13.5707 339.835 12.8245L339.258 12.0078L338.681 11.1911C337.393 12.1012 336.374 13.2204 335.64 14.5476L336.516 15.0312ZM339.258 12.0078L339.837 12.823C340.917 12.0554 342.198 11.4609 343.694 11.0503L343.43 10.0859L343.165 9.12161C341.473 9.58594 339.973 10.2727 338.679 11.1926L339.258 12.0078ZM343.43 10.0859L343.703 11.0478C345.196 10.6233 346.845 10.4062 348.656 10.4062V9.40625V8.40625C346.686 8.40625 344.85 8.64237 343.156 9.12406L343.43 10.0859ZM348.656 9.40625V10.4062C351.04 10.4062 353.096 10.8231 354.848 11.6276L355.266 10.7188L355.683 9.80992C353.623 8.86443 351.273 8.40625 348.656 8.40625V9.40625ZM355.266 10.7188L354.857 11.6316C356.626 12.4223 357.973 13.5338 358.937 14.9587L359.766 14.3984L360.594 13.8381C359.402 12.0756 357.749 10.7339 355.674 9.80586L355.266 10.7188ZM359.766 14.3984L358.944 14.9681C359.908 16.3587 360.406 18.0213 360.406 20H361.406H362.406C362.406 17.6662 361.811 15.5944 360.588 13.8288L359.766 14.3984ZM361.406 20V19H353.227V20V21H361.406V20ZM353.227 20H354.227C354.227 18.9979 354.016 18.0704 353.565 17.2462L352.688 17.7266L351.81 18.2069C352.078 18.6953 352.227 19.2833 352.227 20H353.227ZM352.688 17.7266L353.573 17.2626C353.129 16.4147 352.454 15.7594 351.588 15.2973L351.117 16.1797L350.647 17.062C351.187 17.35 351.558 17.726 351.802 18.1906L352.688 17.7266ZM351.117 16.1797L351.588 15.2973C350.7 14.8237 349.643 14.6172 348.469 14.6172V15.6172V16.6172C349.42 16.6172 350.128 16.7857 350.647 17.062L351.117 16.1797ZM348.469 15.6172V14.6172C347.343 14.6172 346.328 14.787 345.461 15.1721L345.867 16.0859L346.273 16.9997C346.813 16.7599 347.532 16.6172 348.469 16.6172V15.6172ZM345.867 16.0859L345.461 15.1721C344.621 15.5453 343.929 16.0765 343.445 16.7913L344.273 17.3516L345.102 17.9119C345.337 17.5641 345.707 17.2515 346.273 16.9997L345.867 16.0859ZM344.273 17.3516L343.453 16.7798C342.977 17.4621 342.734 18.2318 342.734 19.0625H343.734H344.734C344.734 18.6432 344.851 18.2722 345.094 17.9234L344.273 17.3516ZM343.734 19.0625H342.734C342.734 19.772 342.931 20.4344 343.324 21.0235L344.156 20.4688L344.988 19.914C344.819 19.6594 344.734 19.3843 344.734 19.0625H343.734ZM344.156 20.4688L343.349 21.0588C343.73 21.5797 344.236 22.0384 344.838 22.4455L345.398 21.6172L345.959 20.7889C345.498 20.4772 345.177 20.1703 344.964 19.8787L344.156 20.4688ZM345.398 21.6172L344.849 22.4529C345.456 22.8519 346.167 23.2222 346.973 23.5676L347.367 22.6484L347.761 21.7293C347.036 21.4184 346.434 21.1012 345.948 20.7815L345.398 21.6172ZM347.367 22.6484L346.98 23.5704C347.792 23.9115 348.694 24.2415 349.685 24.5611L349.992 23.6094L350.299 22.6577C349.352 22.3522 348.505 22.0416 347.754 21.7265L347.367 22.6484ZM349.992 23.6094L349.688 24.5621C351.459 25.1269 353.016 25.7556 354.365 26.4451L354.82 25.5547L355.275 24.6643C353.812 23.9162 352.15 23.2481 350.296 22.6567L349.992 23.6094ZM354.82 25.5547L354.377 26.4511C355.728 27.1191 356.838 27.8711 357.723 28.699L358.406 27.9688L359.089 27.2385C358.037 26.2539 356.757 25.3966 355.264 24.6583L354.82 25.5547ZM358.406 27.9688L357.735 28.7103C358.622 29.5125 359.277 30.4143 359.717 31.4171L360.633 31.0156L361.549 30.6141C360.988 29.3357 360.159 28.2063 359.077 27.2272L358.406 27.9688ZM360.633 31.0156L359.722 31.4275C360.171 32.4209 360.406 33.5664 360.406 34.8828H361.406H362.406C362.406 33.3243 362.126 31.8916 361.544 30.6037L360.633 31.0156ZM361.406 34.8828H360.406C360.406 36.2827 360.136 37.4849 359.621 38.5137L360.516 38.9609L361.41 39.4082C362.083 38.0619 362.406 36.5455 362.406 34.8828H361.406ZM360.516 38.9609L359.621 38.5137C359.1 39.5557 358.353 40.4441 357.363 41.183L357.961 41.9844L358.559 42.7857C359.788 41.8684 360.744 40.7412 361.41 39.4082L360.516 38.9609ZM357.961 41.9844L357.37 41.1776C356.374 41.9069 355.162 42.4762 353.713 42.8712L353.977 43.8359L354.24 44.8007C355.885 44.3519 357.329 43.6868 358.552 42.7911L357.961 41.9844ZM353.977 43.8359L353.713 42.8712C352.267 43.2657 350.63 43.4688 348.797 43.4688V44.4688V45.4688C350.776 45.4688 352.593 45.2499 354.24 44.8007L353.977 43.8359ZM348.797 44.4688V43.4688C347.131 43.4688 345.488 43.2607 343.866 42.8439L343.617 43.8125L343.368 44.7811C345.152 45.2393 346.963 45.4688 348.797 45.4688V44.4688ZM343.617 43.8125L343.877 42.8467C342.289 42.4204 340.859 41.7769 339.58 40.9194L339.023 41.75L338.467 42.5806C339.938 43.5669 341.57 44.2983 343.358 44.7783L343.617 43.8125ZM339.023 41.75L339.587 40.9238C338.338 40.0724 337.341 38.9906 336.588 37.6689L335.719 38.1641L334.85 38.6592C335.753 40.2438 336.959 41.5526 338.46 42.5762L339.023 41.75ZM335.719 38.1641L336.594 37.68C335.878 36.3865 335.5 34.8177 335.5 32.9375H334.5H333.5C333.5 35.0885 333.934 37.0041 334.844 38.6481L335.719 38.1641ZM334.5 32.9375V33.9375H342.75V32.9375V31.9375H334.5V32.9375ZM342.75 32.9375H341.75C341.75 34.0196 341.893 34.9937 342.216 35.8291L343.148 35.4688L344.081 35.1084C343.873 34.5688 343.75 33.8554 343.75 32.9375H342.75ZM343.148 35.4688L342.216 35.8291C342.537 36.6605 343.024 37.3639 343.687 37.9068L344.32 37.1328L344.954 36.3589C344.586 36.0579 344.291 35.652 344.081 35.1084L343.148 35.4688ZM344.32 37.1328L343.701 37.9183C344.346 38.4262 345.113 38.7778 345.976 38.9936L346.219 38.0234L346.461 37.0533C345.824 36.894 345.326 36.652 344.939 36.3473L344.32 37.1328ZM346.219 38.0234L345.995 38.9982C346.835 39.1905 347.771 39.2812 348.797 39.2812V38.2812V37.2812C347.885 37.2812 347.103 37.2001 346.442 37.0487L346.219 38.0234ZM348.797 38.2812V39.2812C349.925 39.2812 350.928 39.1234 351.749 38.7432L351.328 37.8359L350.908 36.9286C350.447 37.1422 349.763 37.2812 348.797 37.2812V38.2812ZM351.328 37.8359L351.767 38.7347C352.543 38.3561 353.177 37.8299 353.594 37.1277L352.734 36.6172L351.875 36.1066C351.698 36.4045 351.395 36.6908 350.89 36.9372L351.328 37.8359ZM352.734 36.6172L353.601 37.1162C353.987 36.445 354.18 35.7098 354.18 34.9297H353.18H352.18C352.18 35.3684 352.075 35.7582 351.868 36.1182L352.734 36.6172Z" fill="black" mask="url(#path-8-outside-4_18_13)"/>
</svg>
